STARTFONT 2.1
FONT -Monotype-Bookman Old Style-Bold-R-Normal--50-360-100-100-P-297-iso8859-4
SIZE 36 100 100
FONTBOUNDINGBOX 79 60 -11 -12

STARTPROPERTIES 24
FOUNDRY "Monotype"
FAMILY_NAME "Bookman Old Style"
WEIGHT_NAME "Bold"
SLANT "R"
SETWIDTH_NAME "Normal"
ADD_STYLE_NAME ""
PIXEL_SIZE 50
POINT_SIZE 360
RESOLUTION_X 100
RESOLUTION_Y 100
SPACING "P"
AVERAGE_WIDTH 297
CHARSET_REGISTRY "iso8859"
CHARSET_ENCODING "4"
FACE_NAME "Bookman Old Style Bold ISO Latin4"
_DEC_DEVICE_FONTNAMES "PS=bookmanoldstyle-b-lat4"
COPYRIGHT "Copyright (c) 1993 Monotype Typography Ltd."
CAP_HEIGHT 42
X_HEIGHT 30
WEIGHT 10
QUAD_WIDTH 36
DEFAULT_CHAR 160
FONT_DESCENT 14
FONT_ASCENT 49
ENDPROPERTIES

CHARS 191

STARTCHAR space
ENCODING 32
SWIDTH 340 0
DWIDTH 17 0
BBX 0 0 0 0
BITMAP
ENDCHAR

STARTCHAR exclam
ENCODING 33
SWIDTH 360 0
DWIDTH 18 0
BBX 13 36 3 -1
BITMAP
0780
1FC0
3FE0
3FE0
3FE0
3FE0
3FE0
3FE0
3FE0
3FE0
1FC0
1FC0
1FC0
1FC0
1FC0
1FC0
1FC0
0F80
0F80
0F80
0F80
0F80
0F80
0F80
0F80
0000
0000
0F80
1FC0
3FE0
3FE0
3FE0
3FE0
3FE0
1FC0
0F80
ENDCHAR

STARTCHAR quotedbl
ENCODING 34
SWIDTH 420 0
DWIDTH 21 0
BBX 17 14 2 21
BITMAP
180C00
3C1E00
7E3F00
7E3F00
7E3F00
7E3F00
3C1E00
3C1E00
3C1E00
3C1E00
3C1E00
180C00
180C00
180C00
ENDCHAR

STARTCHAR numbersign
ENCODING 35
SWIDTH 600 0
DWIDTH 30 0
BBX 28 33 1 0
BITMAP
003C1E00
003C1E00
003C3E00
003C3E00
003C3E00
007C3C00
007C3C00
00783C00
00783C00
00787C00
1FFFFFC0
1FFFFFC0
1FFFFFC0
1FFFFFC0
00F07800
00F0F800
00F0F800
00F0F800
3FFFFF80
3FFFFF80
3FFFFF80
3FFFFF80
01E1F000
01E1F000
01E1F000
03E1E000
03E1E000
03C1E000
03C1E000
03C3E000
03C3E000
07C3C000
07C3C000
ENDCHAR

STARTCHAR dollar
ENCODING 36
SWIDTH 660 0
DWIDTH 33 0
BBX 31 45 2 -6
BITMAP
0007C000
0007C000
0007C000
0007C000
0007C000
003FC000
01FFF380
03FFFF80
0FFFFFC0
1FFFFFC0
1FE7FFC0
3FC7DFC0
3F87CFE0
3F87C7E0
3FC7C3E0
3FE7C3F0
3FFFC1F0
1FFFC100
1FFFE000
0FFFFC00
07FFFF00
03FFFFC0
01FFFFE0
007FFFE0
000FFFF0
3C07FFF8
7E07FFF8
7E07CFF8
3F07C7F8
3F87C3F8
3FC7C3F8
3FE7C3F8
3FF7C7F0
1FFFDFF0
1FFFFFE0
1FFFFFC0
1E7FFF80
1E1FFE00
0007E000
0007C000
0007C000
0007C000
0007C000
0007C000
0007C000
ENDCHAR

STARTCHAR percent
ENCODING 37
SWIDTH 940 0
DWIDTH 47 0
BBX 47 36 0 -1
BITMAP
03FE0000F000
07FF8001E000
0FFFC003E000
1F8FC003C000
3F07E0078000
3F07E0078000
3E03F00F0000
7E03F00F0000
7E03F01E0000
7E03F03E0000
7E03F03C0000
7E03F0780000
3E03F0780000
3F07E0F00000
3F07E1F00000
1FCFC1E00000
0FFFC3C00000
07FF03C00000
03FE0780FF80
00000781FFE0
00000F07FFF0
00001E07E3F8
00001E0FC1F8
00003C0F80F8
00003C1F80FC
0000781F80FC
0000F81F80FC
0000F01F80FC
0001E01F80FC
0001E01F80FC
0003C00F80F8
0003C00FC1F8
00078007E3F0
000F0007FFF0
000F0001FFC0
001E0000FF80
ENDCHAR

STARTCHAR ampersand
ENCODING 38
SWIDTH 800 0
DWIDTH 40 0
BBX 42 36 0 -1
BITMAP
000F80000000
003FF0000000
00FFF8000000
00FFFC000000
01FFFC000000
03F8FE000000
03F07E000000
03F07E000000
03F07E000000
03F07E000000
01F87E000000
01F8FC000000
00FFF8000000
007FF07FF800
007FE07FF800
01FFF87FF800
03FFFC7FF800
07FDFE7FF800
0FF8FE1F8000
1FF07F1F0000
1FE07F1F0000
3FC07F9F0000
3FC03FFF3C00
3FC03FFE7E00
3FC03FFEFF00
3FC01FFCFF00
3FE01FFC7F00
3FE01FF87F00
3FF00FF83F00
1FF81FF83F00
1FFFFFFC7F00
0FFFFFFFFE00
07FFFFFFFC00
03FFFFFFF800
00FFF87FF000
001FC01FC000
ENDCHAR

STARTCHAR quoteright
ENCODING 39
SWIDTH 320 0
DWIDTH 16 0
BBX 13 18 2 18
BITMAP
0F00
1F80
3FC0
7FE0
7FE0
7FE0
3FF0
3FE0
1DE0
03E0
03E0
07C0
0FC0
1F80
3F00
3E00
1C00
0800
ENDCHAR

STARTCHAR parenleft
ENCODING 40
SWIDTH 320 0
DWIDTH 16 0
BBX 14 47 1 -12
BITMAP
0080
01E0
03F0
03F0
07E0
0FE0
0FE0
0FC0
1FC0
1FC0
1FC0
3F80
3F80
3F80
3F80
3F80
3F80
7F80
7F80
7F80
7F80
7F80
7F80
7F80
7F80
7F80
7F80
7F80
7F80
7F80
3F80
3F80
3F80
3F80
3F80
3F80
1FC0
1FC0
1FC0
0FC0
0FE0
07E0
07F0
03F0
01F0
01E0
0080
ENDCHAR

STARTCHAR parenright
ENCODING 41
SWIDTH 320 0
DWIDTH 16 0
BBX 14 47 1 -12
BITMAP
0400
0E00
3F00
3F00
1F80
1FC0
1FC0
0FE0
0FE0
0FE0
0FF0
07F0
07F0
07F0
07F0
07F8
07F8
07F8
07F8
07F8
07F8
07F8
07F8
07F8
07F8
07F8
07F8
07F8
07F8
07F8
07F8
07F0
07F0
07F0
07F0
07F0
0FF0
0FE0
0FE0
0FE0
1FC0
1FC0
1F80
3F00
3F00
0E00
0400
ENDCHAR

STARTCHAR asterisk
ENCODING 42
SWIDTH 460 0
DWIDTH 23 0
BBX 24 20 0 15
BITMAP
001C00
003E00
007E00
007E00
003C00
1C3C10
3E3C7C
3F99FC
3FFFFC
3FFFFC
0FFFF0
007E00
00FF00
01E780
03E7C0
07E7E0
07C7E0
07C3E0
0783E0
010080
ENDCHAR

STARTCHAR plus
ENCODING 43
SWIDTH 600 0
DWIDTH 30 0
BBX 27 23 1 6
BITMAP
001F0000
001F0000
001F0000
001F0000
001F0000
001F0000
001F0000
001F0000
001F0000
7FFFFFC0
7FFFFFC0
7FFFFFC0
7FFFFFC0
7FFFFFC0
001F0000
001F0000
001F0000
001F0000
001F0000
001F0000
001F0000
001F0000
001F0000
ENDCHAR

STARTCHAR comma
ENCODING 44
SWIDTH 340 0
DWIDTH 17 0
BBX 14 18 2 -9
BITMAP
0700
1FC0
3FE0
3FE0
3FF0
3FF0
3FF0
1FF0
0FF0
01F0
03E0
07E0
07C0
1F80
3F80
3F00
1C00
0800
ENDCHAR

STARTCHAR minus
ENCODING 45
SWIDTH 600 0
DWIDTH 30 0
BBX 28 5 1 15
BITMAP
3FFFFFC0
3FFFFFC0
3FFFFFC0
3FFFFFC0
3FFFFFC0
ENDCHAR

STARTCHAR period
ENCODING 46
SWIDTH 340 0
DWIDTH 17 0
BBX 13 9 2 -1
BITMAP
0F80
1FC0
3FE0
3FE0
3FE0
3FE0
3FE0
1FC0
0F80
ENDCHAR

STARTCHAR slash
ENCODING 47
SWIDTH 600 0
DWIDTH 30 0
BBX 24 43 2 -7
BITMAP
0000FE
0000FC
0000FC
0001FC
0001F8
0001F8
0003F8
0003F0
0007F0
0007F0
0007E0
000FE0
000FE0
000FC0
001FC0
001FC0
001F80
003F80
003F80
003F00
007F00
007F00
007E00
00FE00
00FC00
00FC00
01FC00
01F800
01F800
03F800
03F000
03F000
07F000
07E000
07E000
0FE000
0FC000
0FC000
1FC000
1F8000
3F8000
3F8000
3F0000
ENDCHAR

STARTCHAR zero
ENCODING 48
SWIDTH 660 0
DWIDTH 33 0
BBX 32 36 1 -1
BITMAP
001FF800
007FFE00
01FFFF80
03FFFFC0
07FFFFE0
07FE3FF0
0FF81FF0
1FF00FF8
1FE007F8
1FE007FC
3FE003FC
3FC003FC
3FC003FC
3FC003FE
3FC003FE
7FC003FE
7FC003FE
7FC003FE
7FC003FE
7FC003FE
7FC003FE
7FC003FE
3FC003FE
3FC003FC
3FC003FC
3FE007FC
1FE007FC
1FE007F8
1FF00FF8
0FF81FF0
0FFE7FF0
07FFFFE0
03FFFFC0
01FFFF80
007FFE00
001FF800
ENDCHAR

STARTCHAR one
ENCODING 49
SWIDTH 660 0
DWIDTH 33 0
BBX 24 35 6 0
BITMAP
000F00
007F00
07FF00
7FFF00
7FFF00
7FFF00
7FFF00
7FFF00
00FF00
00FF00
00FF00
00FF00
00FF00
00FF00
00FF00
00FF00
00FF00
00FF00
00FF00
00FF00
00FF00
00FF00
00FF00
00FF00
00FF00
00FF00
00FF00
00FF00
00FF00
00FF00
7FFFFC
7FFFFC
7FFFFC
7FFFFC
7FFFFC
ENDCHAR

STARTCHAR two
ENCODING 50
SWIDTH 660 0
DWIDTH 33 0
BBX 31 36 1 -1
BITMAP
001FF000
00FFFE00
03FFFF80
07FFFFC0
0FFFFFE0
1FFFFFF0
3FE0FFF0
3F803FF8
3F001FF8
7E000FF8
7C000FF8
7C000FF8
7C000FF8
7C000FF8
60001FF0
00001FF0
00003FE0
00007FC0
0000FF80
0001FF00
0003FE00
0007FC00
000FF800
003FE000
007FC078
00FF0078
01FE00F8
07F801F8
0FFFFFF8
1FFFFFF8
7FFFFFF0
7FFFFFF0
7FFFFFF0
7FFFFFF0
7FFFFFF0
000000E0
ENDCHAR

STARTCHAR three
ENCODING 51
SWIDTH 660 0
DWIDTH 33 0
BBX 31 36 1 -1
BITMAP
001FF000
00FFFE00
01FFFF00
07FFFF80
07FFFFC0
0FFFFFE0
0FF07FF0
1FC01FF0
1F801FF0
1F000FF0
1F000FF0
1F000FF0
00000FE0
00001FE0
00007FC0
001FFF80
001FFE00
001FFE00
001FFFC0
001FFFE0
00003FF0
00000FF8
000007F8
1F0007FC
3F8007FC
3F8007FC
7FC007FC
3FC007F8
3FE00FF8
3FE01FF8
1FF83FF0
0FFFFFE0
07FFFFC0
03FFFF80
00FFFE00
001FF000
ENDCHAR

STARTCHAR four
ENCODING 52
SWIDTH 660 0
DWIDTH 33 0
BBX 33 34 1 0
BITMAP
00007F8000
0000FF8000
0001FF8000
0003FF8000
0007FF8000
000FFF8000
001FFF8000
003FFF8000
007FFF8000
00FF7F8000
01FE7F8000
01FC7F8000
03F87F8000
07F07F8000
0FE07F8000
1FC07F8000
3F807F8000
7F007F8000
7E007F8000
7FFFFFFE00
7FFFFFFE00
7FFFFFFE00
7FFFFFFE00
7FFFFFFE00
7FFFFFFE00
00007F8000
00007F8000
00007F8000
00007F8000
00007F8000
00007F8000
00007F8000
00007F8000
00007F8000
ENDCHAR

STARTCHAR five
ENCODING 53
SWIDTH 660 0
DWIDTH 33 0
BBX 31 36 1 -1
BITMAP
000000F0
07FFFFF0
0FFFFFF0
0FFFFFF0
0FFFFFF0
0FFFFFF0
0FFFFFF0
0FFFFFF0
0FC00000
0FC00000
0FC00000
0FC00000
0FC00000
0FFFF800
0FFFFF00
0FFFFFC0
0FFFFFE0
0FFFFFF0
0FFFFFF8
0E007FF8
00001FF8
000007FC
000007FC
040003FC
1F0003FC
3F8003FC
3FC003FC
3FC003F8
3FE007F8
3FF00FF0
1FF81FF0
0FFFFFE0
07FFFFC0
03FFFF80
00FFFE00
001FF000
ENDCHAR

STARTCHAR six
ENCODING 54
SWIDTH 660 0
DWIDTH 33 0
BBX 32 36 1 -1
BITMAP
00001FE0
0001FFE0
000FFFE0
003FFFE0
007FFFE0
01FFFC00
03FFC000
07FF0000
07FC0000
0FF80000
1FF00000
1FE00000
3FE1FC00
3FCFFF80
3FDFFFE0
3FFFFFF0
7FFFFFF8
7FFFFFF8
7FF81FFC
7FF00FFC
7FE007FC
7FE003FE
7FC003FE
7FC003FE
7FC003FE
3FC003FE
3FC003FC
3FE007FC
1FE007FC
1FF00FF8
0FFC3FF8
07FFFFF0
03FFFFE0
01FFFFC0
00FFFF00
001FFC00
ENDCHAR

STARTCHAR seven
ENCODING 55
SWIDTH 660 0
DWIDTH 33 0
BBX 33 35 0 0
BITMAP
0780000000
07FFFFFF00
07FFFFFF00
0FFFFFFF00
0FFFFFFF00
0FFFFFFF00
0FFFFFFE00
1FFFFFFC00
1F8001F800
1F0003F000
1E0007E000
3E000FE000
3E001FC000
02003F8000
00003F8000
00007F0000
0000FF0000
0000FE0000
0001FE0000
0003FC0000
0003FC0000
0007F80000
0007F80000
0007F80000
000FF00000
000FF00000
000FF00000
001FF00000
001FF00000
001FE00000
001FE00000
001FE00000
003FE00000
003FE00000
003FE00000
ENDCHAR

STARTCHAR eight
ENCODING 56
SWIDTH 660 0
DWIDTH 33 0
BBX 32 36 1 -1
BITMAP
001FF800
00FFFF00
01FFFF80
03FFFFC0
07FFFFE0
0FFC3FF0
0FF00FF0
1FE007F0
1FE007F0
1FE007F0
1FF007F0
1FF80FE0
1FFE1FE0
0FFFBFC0
0FFFFF80
07FFFE00
03FFFF00
01FFFFC0
007FFFE0
01FFFFF0
07FFFFF8
0FF8FFF8
1FE03FFC
1FC00FFC
3FC007FC
3F8003FC
3F8003FC
3FC003FC
3FC003F8
3FE007F8
1FFC3FF0
0FFFFFF0
07FFFFE0
03FFFF80
00FFFF00
003FF800
ENDCHAR

STARTCHAR nine
ENCODING 57
SWIDTH 660 0
DWIDTH 33 0
BBX 32 36 0 -1
BITMAP
003FF800
00FFFF00
03FFFF80
07FFFFE0
0FFFFFF0
1FFC3FF0
1FF00FF8
3FE007F8
3FE007FC
3FC003FC
7FC003FE
7FC003FE
7FC003FE
7FC003FE
7FC003FE
3FE007FE
3FF00FFE
3FF81FFE
1FFFFFFE
0FFFFFFE
0FFFFFFE
03FFFBFC
01FFF3FC
003F87FC
000007F8
00000FF8
00001FF0
00003FE0
00007FE0
0003FFC0
003FFF80
07FFFE00
07FFFC00
07FFF000
07FF8000
07F80000
ENDCHAR

STARTCHAR colon
ENCODING 58
SWIDTH 340 0
DWIDTH 17 0
BBX 13 26 2 -1
BITMAP
0F80
1FC0
3FE0
3FE0
3FE0
3FE0
3FE0
1FC0
0F80
0000
0000
0000
0000
0000
0000
0000
0000
0F80
1FC0
3FE0
3FE0
3FE0
3FE0
3FE0
1FC0
0F80
ENDCHAR

STARTCHAR semicolon
ENCODING 59
SWIDTH 340 0
DWIDTH 17 0
BBX 14 34 2 -9
BITMAP
0F80
1FC0
3FE0
3FE0
3FE0
3FE0
3FE0
1FC0
0F80
0000
0000
0000
0000
0000
0000
0000
0700
1FC0
1FE0
3FF0
3FF0
3FF0
3FF0
1FF0
0FF0
01F0
03E0
03E0
07C0
0FC0
1F80
3F00
1E00
0C00
ENDCHAR

STARTCHAR less
ENCODING 60
SWIDTH 600 0
DWIDTH 30 0
BBX 28 26 1 4
BITMAP
000000C0
000003C0
00000FC0
00003FC0
0000FFC0
0007FF00
001FF800
007FE000
01FF8000
07FE0000
1FF80000
3FE00000
3F800000
3F800000
3FE00000
1FF80000
07FE0000
01FF8000
007FF000
001FFC00
0003FF00
0000FFC0
00003FC0
00000FC0
000003C0
000000C0
ENDCHAR

STARTCHAR equal
ENCODING 61
SWIDTH 600 0
DWIDTH 30 0
BBX 28 14 1 10
BITMAP
3FFFFFC0
3FFFFFC0
3FFFFFC0
3FFFFFC0
3FFFFFC0
00000000
00000000
00000000
00000000
3FFFFFC0
3FFFFFC0
3FFFFFC0
3FFFFFC0
3FFFFFC0
ENDCHAR

STARTCHAR greater
ENCODING 62
SWIDTH 600 0
DWIDTH 30 0
BBX 28 26 1 4
BITMAP
30000000
3C000000
3F000000
3FC00000
3FF80000
07FE0000
01FF8000
007FE000
001FF800
0007FE00
0001FF80
00007FC0
00001FC0
00001FC0
00007FC0
0001FF80
0007FE00
001FF800
007FE000
03FF8000
0FFC0000
3FF00000
3FC00000
3F000000
3C000000
30000000
ENDCHAR

STARTCHAR question
ENCODING 63
SWIDTH 660 0
DWIDTH 33 0
BBX 31 36 1 -1
BITMAP
00FFE000
03FFFC00
0FFFFF00
1FFFFF80
3FFFFFC0
3FF9FFE0
3FE03FF0
3FC01FF0
3F800FF8
3F0007F8
1E0007F8
000007F8
000007F8
00000FF8
00001FF8
0007FFF0
007FFFF0
007FFFE0
007FFFE0
007FFFC0
007FFF00
007FFC00
007C0000
007C0000
007C0000
00000000
00000000
007C0000
00FE0000
01FF0000
01FF0000
01FF0000
01FF0000
01FF0000
00FE0000
007C0000
ENDCHAR

STARTCHAR at
ENCODING 64
SWIDTH 820 0
DWIDTH 41 0
BBX 46 45 -2 -11
BITMAP
000007F00000
00007FFF0000
0003E001E000
000F00007000
001C00001800
007800000C00
00F000000600
01C000000300
03C000000180
038000000180
070003800080
0E000FEFC0C0
0E001E6F80C0
1C007C3F8040
1C00783F8040
3800F83F8040
3801F03F0040
3803F03F0040
3003E03F0040
3007E03E0040
7007E07E0040
700FC07E00C0
700FC07E0080
700FC0FC0080
701FC1FC0180
701F81FC0100
301F82F80300
301F87F80600
301FCDF80400
381FF9F80C00
381FF9F81830
181FF0F86020
180FE0FFC020
0C07803E0060
0E00000000C0
060000000080
070000000180
038000000300
01C000000600
00E000000C00
007000003800
003C00006000
000F0003C000
0003F01F0000
00003FF80000
ENDCHAR

STARTCHAR A
ENCODING 65
SWIDTH 720 0
DWIDTH 36 0
BBX 38 34 -1 0
BITMAP
0001FE0000
0001FF0000
0003FF0000
0003FF0000
0003FF8000
0007FF8000
0007FF8000
000FFFC000
000FFFC000
000FBFE000
001FBFE000
001F9FE000
003F1FF000
003F1FF000
003F0FF800
007E0FF800
007E0FF800
00FC07FC00
00FFFFFC00
00FFFFFE00
01FFFFFE00
01FFFFFE00
03FFFFFF00
03F001FF00
03F001FF80
07E000FF80
07E000FF80
0FE000FFC0
0FE000FFC0
7FFC07FFF8
7FFC07FFF8
7FFC07FFF8
7FFC07FFF8
7FFC07FFF8
ENDCHAR

STARTCHAR B
ENCODING 66
SWIDTH 720 0
DWIDTH 36 0
BBX 36 34 0 0
BITMAP
3FFFFFE000
3FFFFFF800
3FFFFFFE00
3FFFFFFF00
3FFFFFFF00
03FC07FF80
03FC00FF80
03FC00FF80
03FC007F80
03FC007F80
03FC007F80
03FC00FF00
03FC00FF00
03FC03FE00
03FFFFFC00
03FFFFF000
03FFFFF000
03FFFFFC00
03FFFFFF00
03FC01FF80
03FC00FF80
03FC007FC0
03FC007FC0
03FC007FC0
03FC007FC0
03FC007FC0
03FC00FFC0
03FC01FF80
03FE07FF80
3FFFFFFF00
3FFFFFFF00
3FFFFFFE00
3FFFFFF800
3FFFFFC000
ENDCHAR

STARTCHAR C
ENCODING 67
SWIDTH 740 0
DWIDTH 37 0
BBX 38 36 0 -1
BITMAP
0003FF0000
001FFFEF00
003FFFFF00
00FFFFFF00
01FFFFFF80
03FFC3FF80
07FF00FF80
07FE003F80
0FFC001FC0
0FF8000FC0
1FF8000FC0
1FF00007E0
3FF00003E0
3FF0000380
3FE0000000
3FE0000000
3FE0000000
3FE0000000
3FE0000000
3FE0000000
3FF0000000
3FF0000000
3FF0000000
1FF8000080
1FF80001E0
1FFC0003F0
0FFC0007F0
0FFE000FE0
07FF801FC0
03FFC0FF80
01FFFFFF00
00FFFFFE00
007FFFFC00
003FFFF000
000FFFC000
0001FE0000
ENDCHAR

STARTCHAR D
ENCODING 68
SWIDTH 780 0
DWIDTH 39 0
BBX 39 34 0 0
BITMAP
3FFFFFC000
3FFFFFF800
3FFFFFFE00
3FFFFFFF00
0FFFFFFF80
03FC07FFC0
03FC01FFC0
03FC007FE0
03FC003FE0
03FC003FF0
03FC001FF0
03FC001FF8
03FC001FF8
03FC000FF8
03FC000FF8
03FC000FF8
03FC000FF8
03FC000FF8
03FC000FF8
03FC000FF8
03FC000FF8
03FC001FF8
03FC001FF0
03FC001FF0
03FC003FF0
03FC007FE0
03FC00FFC0
03FC01FFC0
07FE0FFF80
3FFFFFFF00
3FFFFFFE00
3FFFFFF800
3FFFFFE000
3FFFFF0000
ENDCHAR

STARTCHAR E
ENCODING 69
SWIDTH 720 0
DWIDTH 36 0
BBX 37 34 0 0
BITMAP
3FFFFFFC00
3FFFFFFE00
3FFFFFFE00
3FFFFFFF00
3FFFFFFF00
03FC01FF00
03FC007F80
03FC001F80
03FC001F80
03FC0F0FC0
03FC0F07C0
03FC0F0700
03FC0F0000
03FC1F0000
03FFFF0000
03FFFF0000
03FFFF0000
03FFFF0000
03FFFF0000
03FC1F0000
03FC0F0180
03FC0F01F0
03FC0F03E0
03FC0F03E0
03FC0007E0
03FC000FC0
03FC001FC0
03FC007FC0
03FE03FF80
3FFFFFFF80
3FFFFFFF80
3FFFFFFF00
3FFFFFFF00
3FFFFFFF00
ENDCHAR

STARTCHAR F
ENCODING 70
SWIDTH 680 0
DWIDTH 34 0
BBX 36 34 0 0
BITMAP
3FFFFFFE00
3FFFFFFE00
3FFFFFFE00
3FFFFFFF00
0FFFFFFF00
03FC01FF00
03FC007F80
03FC001F80
03FC000F80
03FC0F0FC0
03FC0F07C0
03FC0F0600
03FC0F0000
03FC1F0000
03FFFF0000
03FFFF0000
03FFFF0000
03FFFF0000
03FFFF0000
03FC1F0000
03FC0F0000
03FC0F0000
03FC0F0000
03FC0F0000
03FC000000
03FC000000
03FC000000
03FC000000
07FE000000
3FFFE00000
3FFFE00000
3FFFE00000
3FFFE00000
3FFFE00000
ENDCHAR

STARTCHAR G
ENCODING 71
SWIDTH 780 0
DWIDTH 39 0
BBX 40 36 0 -1
BITMAP
0003FF0000
001FFFEF00
003FFFFF00
00FFFFFF00
01FFFFFF80
03FFC3FF80
07FF00FF80
07FE003FC0
0FFC001FC0
0FF8000FC0
1FF8000FC0
1FF00007E0
1FF00003C0
3FF0000200
3FF0000000
3FE0000000
3FE0000000
3FE003FFFE
3FE003FFFE
3FE003FFFE
3FF003FFFE
3FF003FFFE
3FF0003FF0
1FF0001FE0
1FF8001FE0
1FF8001FE0
0FFC001FE0
0FFE003FE0
07FF003FE0
03FF80FFE0
03FFFFFFE0
01FFFFFFE0
007FFFFFE0
003FFFF7E0
000FFF83E0
0000FC0000
ENDCHAR

STARTCHAR H
ENCODING 72
SWIDTH 820 0
DWIDTH 41 0
BBX 41 34 0 0
BITMAP
3FFFC1FFFE00
3FFFC1FFFE00
3FFFC1FFFE00
3FFFC1FFFE00
3FFFC1FFFE00
07FE003FF000
03FC001FE000
03FC001FE000
03FC001FE000
03FC001FE000
03FC001FE000
03FC001FE000
03FC001FE000
03FC001FE000
03FFFFFFE000
03FFFFFFE000
03FFFFFFE000
03FFFFFFE000
03FFFFFFE000
03FC001FE000
03FC001FE000
03FC001FE000
03FC001FE000
03FC001FE000
03FC001FE000
03FC001FE000
03FC001FE000
03FC001FE000
07FE003FF000
3FFFC1FFFE00
3FFFC1FFFE00
3FFFC1FFFE00
3FFFC1FFFE00
3FFFC1FFFE00
ENDCHAR

STARTCHAR I
ENCODING 73
SWIDTH 400 0
DWIDTH 20 0
BBX 20 34 0 0
BITMAP
3FFFC0
3FFFC0
3FFFC0
3FFFC0
3FFFC0
07FE00
03FC00
03FC00
03FC00
03FC00
03FC00
03FC00
03FC00
03FC00
03FC00
03FC00
03FC00
03FC00
03FC00
03FC00
03FC00
03FC00
03FC00
03FC00
03FC00
03FC00
03FC00
03FC00
03FE00
3FFFC0
3FFFC0
3FFFC0
3FFFC0
3FFFC0
ENDCHAR

STARTCHAR J
ENCODING 74
SWIDTH 640 0
DWIDTH 32 0
BBX 34 35 -1 -1
BITMAP
0000FFFF00
0000FFFF00
0000FFFF00
0000FFFF00
0000FFFF00
00001FF800
00000FF000
00000FF000
00000FF000
00000FF000
00000FF000
00000FF000
00000FF000
00000FF000
00000FF000
00000FF000
00000FF000
00000FF000
00000FF000
06000FF000
1F800FF000
3FC00FF000
3FC00FF000
7FC00FF000
7FC00FF000
7FC01FF000
7FC01FF000
3FE01FF000
3FE03FE000
3FF8FFE000
1FFFFFC000
0FFFFF8000
07FFFF0000
01FFFC0000
007FF00000
ENDCHAR

STARTCHAR K
ENCODING 75
SWIDTH 800 0
DWIDTH 40 0
BBX 41 34 0 0
BITMAP
3FFFC1FFFC00
3FFFC1FFFC00
3FFFC1FFFC00
3FFFC1FFFC00
3FFFC1FFFC00
07FE003FE000
03FC007FC000
03FC00FF8000
03FC01FE0000
03FC03FC0000
03FC07F80000
03FC0FF00000
03FC1FE00000
03FC3FC00000
03FCFFC00000
03FDFFE00000
03FFFFF00000
03FFFFF00000
03FFFFF80000
03FFEFFC0000
03FF87FE0000
03FF07FE0000
03FE03FF0000
03FC01FF8000
03FC00FFC000
03FC00FFC000
03FC007FE000
03FC003FF000
07FE003FF800
3FFFC1FFFF00
3FFFC1FFFF00
3FFFC1FFFF00
3FFFC1FFFF00
3FFFC1FFFF00
ENDCHAR

STARTCHAR L
ENCODING 76
SWIDTH 640 0
DWIDTH 32 0
BBX 34 34 0 0
BITMAP
3FFFC00000
3FFFC00000
3FFFC00000
3FFFC00000
3FFFC00000
07FE000000
03FC000000
03FC000000
03FC000000
03FC000000
03FC000000
03FC000000
03FC000000
03FC000000
03FC000000
03FC000000
03FC000000
03FC000000
03FC000000
03FC000000
03FC000800
03FC001F00
03FC001F00
03FC003E00
03FC007E00
03FC007E00
03FC00FC00
03FC03FC00
03FE1FFC00
3FFFFFF800
3FFFFFF800
3FFFFFF800
3FFFFFF000
3FFFFFF000
ENDCHAR

STARTCHAR M
ENCODING 77
SWIDTH 940 0
DWIDTH 47 0
BBX 46 34 1 0
BITMAP
7FFF800FFFF0
7FFF800FFFF0
7FFF800FFFF0
7FFF800FFFF0
7FFFC01FFFF0
07FFC01FFF80
07FFC01FFF00
07FFE03EFF00
07FFE03EFF00
07EFE03EFF00
07EFF07EFF00
07EFF07CFF00
07E7F07CFF00
07E7F07CFF00
07E7F8F8FF00
07E7F8F8FF00
07E3F8F8FF00
07E3FDF8FF00
07E3FDF0FF00
07E1FDF0FF00
07E1FDF0FF00
07E1FFE0FF00
07E0FFE0FF00
07E0FFE0FF00
07E0FFC0FF00
07E0FFC0FF00
07E07FC0FF00
07E07FC0FF00
07E07F80FF80
7FFE3F8FFFF0
7FFE3F8FFFF0
7FFE3F0FFFF0
7FFE1F0FFFF0
7FFE1F0FFFF0
ENDCHAR

STARTCHAR N
ENCODING 78
SWIDTH 740 0
DWIDTH 37 0
BBX 38 34 0 0
BITMAP
3FFF03FFF0
3FFF83FFF0
3FFF83FFF0
3FFFC3FFF0
3FFFC3FFF0
03FFE03F00
03FFE03F00
03FFF03F00
03FFF03F00
03FFF83F00
03F7F83F00
03F7FC3F00
03F3FC3F00
03F3FE3F00
03F1FE3F00
03F1FF3F00
03F0FF3F00
03F0FFBF00
03F07FBF00
03F07FFF00
03F03FFF00
03F03FFF00
03F01FFF00
03F00FFF00
03F00FFF00
03F007FF00
03F007FF00
03F003FF00
03F003FF00
3FFF01FF00
3FFF01FF00
3FFF00FF00
3FFF00FF00
3FFF007F00
ENDCHAR

STARTCHAR O
ENCODING 79
SWIDTH 800 0
DWIDTH 40 0
BBX 40 36 0 -1
BITMAP
0001FFC000
000FFFF800
003FFFFC00
00FFFFFF00
01FFFFFF80
03FFE3FFC0
07FF00FFE0
07FE007FE0
0FFC003FF0
0FF8001FF8
1FF8001FF8
1FF0000FF8
1FF0000FFC
3FF0000FFC
3FF00007FC
3FE00007FC
3FE00007FC
3FE00007FC
3FE00007FC
3FE00007FC
3FE00007FC
3FF00007FC
3FF0000FFC
3FF0000FFC
1FF0000FF8
1FF8001FF8
0FF8001FF8
0FFC003FF0
07FE007FE0
07FF00FFE0
03FFC3FFC0
01FFFFFF80
00FFFFFF00
003FFFFC00
000FFFF000
0003FFC000
ENDCHAR

STARTCHAR P
ENCODING 80
SWIDTH 660 0
DWIDTH 33 0
BBX 34 34 0 0
BITMAP
3FFFFFC000
3FFFFFF000
3FFFFFFC00
3FFFFFFE00
0FFFFFFE00
03FC07FF00
03FC03FF00
03FC01FF80
03FC00FF80
03FC00FF80
03FC00FF80
03FC00FF80
03FC01FF80
03FC01FF00
03FC07FF00
03FFFFFE00
03FFFFFC00
03FFFFF800
03FFFFF000
03FFFFC000
03FC000000
03FC000000
03FC000000
03FC000000
03FC000000
03FC000000
03FC000000
03FC000000
07FE000000
3FFFC00000
3FFFC00000
3FFFC00000
3FFFC00000
3FFFC00000
ENDCHAR

STARTCHAR Q
ENCODING 81
SWIDTH 800 0
DWIDTH 40 0
BBX 40 45 0 -10
BITMAP
0001FFC000
000FFFF800
003FFFFC00
00FFFFFF00
01FFFFFF80
03FFC3FFC0
07FF00FFE0
07FE003FF0
0FFC003FF0
0FF8001FF8
1FF8000FF8
1FF0000FF8
3FF0000FFC
3FF0000FFC
3FF00007FC
3FE00007FC
3FE00007FC
3FE00007FC
3FE00007FC
3FE00007FC
3FE00007FC
3FF00007FC
3FF0000FFC
1FF0000FF8
1FF0000FF8
1FF8001FF8
0FFC001FF0
0FFC003FF0
07FF007FE0
03FFC1FFC0
01FFFFFF80
00FFFFFF00
007FFFFE00
001FFFF800
0007FFC000
0000FF0000
0000FF0000
0000FF8000
0000FFC030
00007FF1F0
00007FFFF8
00003FFFFC
00001FFFF8
00000FFFE0
000003FF00
ENDCHAR

STARTCHAR R
ENCODING 82
SWIDTH 780 0
DWIDTH 39 0
BBX 41 34 0 0
BITMAP
3FFFFFF80000
3FFFFFFE0000
3FFFFFFF8000
3FFFFFFFC000
3FFFFFFFE000
03FC00FFE000
03FC003FF000
03FC001FF000
03FC001FF000
03FC001FF000
03FC001FF000
03FC001FF000
03FC003FE000
03FC00FFE000
03FFFFFFC000
03FFFFFF8000
03FFFFFF0000
03FFFFFC0000
03FFFFE00000
03FC3FE00000
03FC3FF00000
03FC1FF80000
03FC0FFC0000
03FC07FE0000
03FC07FF0000
03FC03FF8000
03FC01FF8000
03FC00FFC000
07FE00FFE000
3FFFC07FFE00
3FFFC03FFE00
3FFFC01FFE00
3FFFC01FFE00
3FFFC00FFE00
ENDCHAR

STARTCHAR S
ENCODING 83
SWIDTH 660 0
DWIDTH 33 0
BBX 33 36 0 -1
BITMAP
003FF00000
00FFFCF000
03FFFFF000
07FFFFF000
0FFFFFF800
1FF87FF800
1FE01FF800
1FC007F800
3FC003FC00
3FC001FC00
3FE000FC00
3FF8007C00
1FFE007800
1FFFE00000
1FFFFC0000
0FFFFF8000
07FFFFE000
03FFFFF000
01FFFFF800
007FFFFC00
000FFFFE00
1C01FFFE00
7E001FFF00
3E0007FF00
3F0001FF00
3F8000FF00
3FC000FF00
3FE000FF00
1FF000FE00
1FFC01FE00
1FFF87FC00
1FFFFFFC00
1FFFFFF800
0F7FFFE000
0F1FFFC000
0007FE0000
ENDCHAR

STARTCHAR T
ENCODING 84
SWIDTH 700 0
DWIDTH 35 0
BBX 38 35 -2 0
BITMAP
0380000700
07FFFFFF80
07FFFFFF80
07FFFFFFC0
0FFFFFFFC0
0FFFFFFFC0
0FF1FE1FE0
1FC1FE0FE0
1F81FE07E0
3F01FE03F0
3F01FE03F0
3E01FE01F0
0C01FE01C0
0001FE0000
0001FE0000
0001FE0000
0001FE0000
0001FE0000
0001FE0000
0001FE0000
0001FE0000
0001FE0000
0001FE0000
0001FE0000
0001FE0000
0001FE0000
0001FE0000
0001FE0000
0001FE0000
0003FF0000
001FFFE000
001FFFE000
001FFFE000
001FFFE000
001FFFE000
ENDCHAR

STARTCHAR U
ENCODING 85
SWIDTH 740 0
DWIDTH 37 0
BBX 39 35 -1 -1
BITMAP
3FFFC1FFF8
3FFFC1FFF8
3FFFC1FFF8
3FFFC1FFF8
3FFFC1FFF8
07FE001F80
03FC001F80
03FC001F80
03FC001F80
03FC001F80
03FC001F80
03FC001F80
03FC001F80
03FC001F80
03FC001F80
03FC001F80
03FC001F80
03FC001F80
03FC001F80
03FC001F80
03FC001F80
03FC001F80
03FC001F80
03FC001F80
03FE001F80
03FE003F80
03FF003F00
01FF007F00
01FFC1FE00
00FFFFFE00
007FFFFC00
003FFFF800
001FFFF000
0007FFC000
0000FE0000
ENDCHAR

STARTCHAR V
ENCODING 86
SWIDTH 720 0
DWIDTH 36 0
BBX 38 34 -1 0
BITMAP
7FFF80FFF8
7FFF80FFF8
7FFF80FFF8
7FFF80FFF8
7FFF80FFF8
0FFC001FC0
0FFC001FC0
07FC001F80
07FC001F80
03FE003F00
03FE003F00
03FE007F00
01FF007E00
01FF007E00
01FF80FE00
00FF80FC00
00FF80FC00
007FC1F800
007FC1F800
007FC1F800
003FE3F000
003FE3F000
001FE7E000
001FF7E000
001FF7E000
000FFFC000
000FFFC000
0007FF8000
0007FF8000
0007FF8000
0003FF0000
0003FF0000
0001FE0000
0001FE0000
ENDCHAR

STARTCHAR W
ENCODING 87
SWIDTH 940 0
DWIDTH 47 0
BBX 49 34 -1 0
BITMAP
7FFF3FFF1FFF00
7FFF3FFF1FFF00
7FFF3FFF1FFF00
7FFF3FFF1FFF00
7FFF3FFF1FFF00
0FFC0FF803F800
07FC07F803F000
07FC07F803F000
07FC07FC07F000
03FE03FC07E000
03FE03FC07E000
03FE03FC07E000
01FE01FE0FC000
01FF03FE0FC000
01FF03FE0FC000
01FF03FE0FC000
00FF07FF1F8000
00FF87FF1F8000
00FF87FF1F8000
007F87FF1F0000
007F8FFFBF0000
007FCF7FBF0000
003FCF7FBF0000
003FDF3FFE0000
003FDF3FFE0000
003FFE3FFE0000
001FFE1FFC0000
001FFE1FFC0000
001FFC1FFC0000
000FFC1FF80000
000FFC0FF80000
000FF80FF80000
000FF80FF80000
0007F807F00000
ENDCHAR

STARTCHAR X
ENCODING 88
SWIDTH 780 0
DWIDTH 39 0
BBX 43 34 -2 0
BITMAP
1FFFFC7FFF00
1FFFFC7FFF00
1FFFFC7FFF00
1FFFFC7FFF00
1FFFFC7FFF00
01FFC00FF800
00FFE01FE000
007FF03FC000
003FF87F8000
001FF87F0000
000FFCFE0000
0007FFFC0000
0003FFF80000
0003FFF00000
0001FFE00000
0000FFC00000
00007FC00000
00007FE00000
0000FFF00000
0001FFF80000
0003FFFC0000
0007FFFE0000
000FE7FF0000
001FC3FF8000
003F81FFC000
007F00FFE000
00FF007FE000
01FE007FF800
07FC003FFC00
3FFF83FFFF80
3FFF83FFFF80
3FFF83FFFF80
3FFF83FFFF80
3FFF83FFFF80
ENDCHAR

STARTCHAR Y
ENCODING 89
SWIDTH 700 0
DWIDTH 35 0
BBX 38 34 -2 0
BITMAP
3FFFE1FFF8
3FFFE1FFF8
3FFFE1FFF8
3FFFE1FFF8
3FFFE1FFF8
07FE003FC0
07FE003F80
03FF007F00
01FF807E00
01FF80FE00
00FFC1FC00
007FC1F800
007FE3F800
003FF7F000
001FF7E000
001FFFC000
000FFFC000
0007FF8000
0007FF0000
0003FF0000
0001FE0000
0001FE0000
0001FE0000
0001FE0000
0001FE0000
0001FE0000
0001FE0000
0001FE0000
0003FF0000
001FFFE000
001FFFE000
001FFFE000
001FFFE000
001FFFE000
ENDCHAR

STARTCHAR Z
ENCODING 90
SWIDTH 640 0
DWIDTH 32 0
BBX 34 34 -1 0
BITMAP
01FFFFFE00
03FFFFFE00
03FFFFFE00
07FFFFFE00
07FFFFFE00
0FFC0FFC00
0FF01FF800
0FC01FF000
1F803FF000
1F807FE000
3F00FFC000
3E00FF8000
0E01FF8000
0003FF0000
0007FE0000
0007FC0000
000FFC0000
001FF80000
003FF00000
003FF00000
007FE00C00
00FFC00F80
01FF801F00
01FF801F00
03FF003F00
07FE007E00
0FFC00FE00
0FFC03FE00
1FF81FFC00
3FFFFFFC00
3FFFFFF800
3FFFFFF800
3FFFFFF800
3FFFFFF000
ENDCHAR

STARTCHAR bracketleft
ENCODING 91
SWIDTH 300 0
DWIDTH 15 0
BBX 14 47 2 -12
BITMAP
7FF8
7FF8
7FF8
7FF8
7FF8
7F00
7F00
7F00
7F00
7F00
7F00
7F00
7F00
7F00
7F00
7F00
7F00
7F00
7F00
7F00
7F00
7F00
7F00
7F00
7F00
7F00
7F00
7F00
7F00
7F00
7F00
7F00
7F00
7F00
7F00
7F00
7F00
7F00
7F00
7F00
7F00
7F00
7FF8
7FF8
7FF8
7FF8
7FF8
ENDCHAR

STARTCHAR backslash
ENCODING 92
SWIDTH 600 0
DWIDTH 30 0
BBX 24 43 2 -7
BITMAP
3F0000
3F8000
3F8000
1F8000
1FC000
1FC000
0FC000
0FE000
07E000
07E000
07F000
03F000
03F000
03F800
01F800
01F800
01FC00
00FC00
00FC00
00FE00
007E00
007E00
007F00
003F00
003F00
003F80
001F80
001F80
001FC0
000FC0
000FC0
000FE0
0007E0
0007E0
0007F0
0003F0
0003F0
0003F8
0001F8
0001F8
0000FC
0000FC
0000FE
ENDCHAR

STARTCHAR bracketright
ENCODING 93
SWIDTH 300 0
DWIDTH 15 0
BBX 14 47 -1 -12
BITMAP
7FF8
7FF8
7FF8
7FF8
7FF8
03F8
03F8
03F8
03F8
03F8
03F8
03F8
03F8
03F8
03F8
03F8
03F8
03F8
03F8
03F8
03F8
03F8
03F8
03F8
03F8
03F8
03F8
03F8
03F8
03F8
03F8
03F8
03F8
03F8
03F8
03F8
03F8
03F8
03F8
03F8
03F8
03F8
7FF8
7FF8
7FF8
7FF8
7FF8
ENDCHAR

STARTCHAR asciicircum
ENCODING 94
SWIDTH 600 0
DWIDTH 30 0
BBX 28 20 1 14
BITMAP
001F8000
001F8000
003FC000
003FC000
007FE000
007FE000
00FFF000
00F9F000
01F9F800
01F0F800
03F0FC00
03E07C00
07E07E00
07C03E00
0FC03F00
0F801F00
1F801F80
1F000F80
3F000FC0
3E0007C0
ENDCHAR

STARTCHAR underscore
ENCODING 95
SWIDTH 500 0
DWIDTH 25 0
BBX 29 3 -2 -6
BITMAP
3FFFFFE0
3FFFFFE0
3FFFFFE0
ENDCHAR

STARTCHAR quoteleft
ENCODING 96
SWIDTH 320 0
DWIDTH 16 0
BBX 13 18 1 18
BITMAP
0080
01C0
03E0
07E0
0FC0
0F80
1F00
3E00
3E00
3DC0
3FE0
3FE0
3FF0
3FF0
3FF0
1FE0
0FC0
0780
ENDCHAR

STARTCHAR a
ENCODING 97
SWIDTH 580 0
DWIDTH 29 0
BBX 30 26 0 -1
BITMAP
003FC000
00FFF800
03FFFE00
07FFFF00
0FFFFF00
0FF0FF80
1FE07F80
1FE07F80
0FC07F80
0F807F80
00007F80
003FFF80
01FFFF80
07FFFF80
0FFFFF80
1FF87F80
3FE07F80
3FC07F80
3FC07F80
3FC07F80
3FF3FFC0
3FFFFFF8
1FFFFFF8
0FFF9FF8
07FF0FF8
01F803F0
ENDCHAR

STARTCHAR b
ENCODING 98
SWIDTH 600 0
DWIDTH 30 0
BBX 31 37 -1 -1
BITMAP
00780000
03F80000
3FF80000
3FF80000
3FF80000
3FF80000
3FF80000
07F80000
07F80000
07F80000
07F80000
07F87C00
07FBFF00
07FFFFC0
07FFFFC0
07FFFFE0
07FFFFF0
07FE1FF0
07F80FF0
07F80FF8
07F807F8
07F807F8
07F807F8
07F807F8
07F807F8
07F807F8
07F807F8
07F807F8
07F80FF8
07F80FF0
07FC1FF0
07FE3FE0
07FFFFE0
07FFFFC0
07FFFF80
07E7FF00
0001FC00
ENDCHAR

STARTCHAR c
ENCODING 99
SWIDTH 580 0
DWIDTH 29 0
BBX 29 26 1 -1
BITMAP
001FE000
00FFFC00
01FFFF00
07FFFF80
0FFFFFC0
0FF87FC0
1FF03FC0
3FE03FC0
3FE01FC0
3FC01FC0
3FC00F80
7FC00000
7FC00000
7FC00000
7FC00000
3FC00000
3FE00100
3FE00380
1FF007C0
1FFC1FE0
0FFFFFC0
07FFFF80
03FFFF00
01FFFC00
007FF800
000F8000
ENDCHAR

STARTCHAR d
ENCODING 100
SWIDTH 640 0
DWIDTH 32 0
BBX 31 37 1 -1
BITMAP
000003C0
00001FC0
0001FFC0
0001FFC0
0001FFC0
0001FFC0
0001FFC0
00003FC0
00003FC0
00003FC0
00003FC0
007F3FC0
01FFFFC0
07FFFFC0
0FFFFFC0
0FFFFFC0
1FF8FFC0
1FF07FC0
3FE03FC0
3FC03FC0
3FC03FC0
3FC03FC0
7FC03FC0
7FC03FC0
7FC03FC0
7FC03FC0
3FC03FC0
3FC03FC0
3FE03FC0
3FE03FC0
1FF0FFC0
1FFFFFE0
0FFFFFFC
07FFFFFC
03FFDFFC
01FF9FFC
007C1FC0
ENDCHAR

STARTCHAR e
ENCODING 101
SWIDTH 580 0
DWIDTH 29 0
BBX 28 26 1 -1
BITMAP
001F8000
00FFF000
03FFFC00
07FFFE00
0FFFFF00
1FF07F00
1FE07F80
3FE03F80
3FC03F80
3FFFFFC0
7FFFFFC0
7FFFFFC0
7FFFFFC0
7FC00000
7FC00000
7FC00000
3FE00000
3FE00300
1FF00F80
1FF83FC0
0FFFFF80
07FFFF00
03FFFE00
01FFFC00
007FF000
001F8000
ENDCHAR

STARTCHAR f
ENCODING 102
SWIDTH 380 0
DWIDTH 19 0
BBX 25 36 1 0
BITMAP
000FE000
007FF800
00FFFC00
01FFFE00
03FFFE00
03FCFE00
07F87E00
07F87E00
07F80800
07F80000
07F80000
07F80000
7FFF8000
7FFF8000
7FFF8000
7FFF8000
7FFF8000
07F80000
07F80000
07F80000
07F80000
07F80000
07F80000
07F80000
07F80000
07F80000
07F80000
07F80000
07F80000
07F80000
07F80000
7FFF8000
7FFF8000
7FFF8000
7FFF8000
7FFF8000
ENDCHAR

STARTCHAR g
ENCODING 103
SWIDTH 580 0
DWIDTH 29 0
BBX 32 37 -1 -11
BITMAP
000000F8
001F81FC
00FFF3FC
01FFFFFC
03FFFFFC
07FFFFF8
0FF87F80
0FF07F80
1FE03FC0
1FE03FC0
1FE03FC0
1FE03FC0
0FF03FC0
0FF87F80
0FFFFF80
07FFFF00
01FFFE00
03FFF800
07EFC000
0FC00000
1FC00000
1FFF0000
1FFFFE00
1FFFFFC0
0FFFFFF0
07FFFFF8
01FFFFFC
07FFFFFC
1FC03FFC
1F8003FC
3F8001FC
3FC003FC
3FF00FF8
1FFFFFF0
0FFFFFE0
07FFFF80
007FFC00
ENDCHAR

STARTCHAR h
ENCODING 104
SWIDTH 680 0
DWIDTH 34 0
BBX 34 36 0 0
BITMAP
0078000000
03F8000000
3FF8000000
3FF8000000
3FF8000000
3FF8000000
3FF8000000
07F8000000
07F8000000
07F8000000
07F8000000
07F83F0000
07F9FFC000
07FFFFE000
07FFFFF000
07FFFFF800
07FFFFF800
07FF0FF800
07FC07F800
07F807F800
07F807F800
07F807F800
07F807F800
07F807F800
07F807F800
07F807F800
07F807F800
07F807F800
07F807F800
07F807F800
07F807F800
3FFF3FFF80
3FFF3FFF80
3FFF3FFF80
3FFF3FFF80
3FFF3FFF80
ENDCHAR

STARTCHAR i
ENCODING 105
SWIDTH 360 0
DWIDTH 18 0
BBX 18 36 1 0
BITMAP
01E000
07F000
07F000
0FF800
0FF800
0FF800
07F000
07F000
01E000
000000
000000
003800
03F800
3FF800
3FF800
3FF800
3FF800
3FF800
07F800
07F800
07F800
07F800
07F800
07F800
07F800
07F800
07F800
07F800
07F800
07F800
07F800
3FFF80
3FFF80
3FFF80
3FFF80
3FFF80
ENDCHAR

STARTCHAR j
ENCODING 106
SWIDTH 340 0
DWIDTH 17 0
BBX 21 47 -6 -11
BITMAP
0003C0
000FE0
000FE0
001FF0
001FF0
001FF0
000FE0
000FE0
0003C0
000000
000000
0000F0
0007F0
007FF0
007FF0
007FF0
007FF0
007FF0
000FF0
000FF0
000FF0
000FF0
000FF0
000FF0
000FF0
000FF0
000FF0
000FF0
000FF0
000FF0
000FF0
000FF0
000FF0
000FF0
000FF0
000FF0
000FF0
000FF0
000FF0
1E0FF0
3F0FF0
3F8FE0
3FFFE0
3FFFC0
1FFF80
1FFF00
03FC00
ENDCHAR

STARTCHAR k
ENCODING 107
SWIDTH 660 0
DWIDTH 33 0
BBX 34 36 1 0
BITMAP
0078000000
03F8000000
3FF8000000
3FF8000000
3FF8000000
3FF8000000
3FF8000000
07F8000000
07F8000000
07F8000000
07F8000000
07F8000000
07F8FFFE00
07F8FFFE00
07F8FFFE00
07F8FFFE00
07F8FFFE00
07F81FF000
07F83FC000
07F87F8000
07F9FE0000
07FBFC0000
07FFFC0000
07FFFE0000
07FFFF0000
07FFFF8000
07FE7FC000
07FC7FC000
07F83FE000
07F81FF000
07F80FF800
3FFF7FFF00
3FFF7FFF00
3FFF7FFF00
3FFF7FFF00
3FFF7FFF00
ENDCHAR

STARTCHAR l
ENCODING 108
SWIDTH 340 0
DWIDTH 17 0
BBX 18 36 0 0
BITMAP
007800
07F800
3FF800
3FF800
3FF800
3FF800
3FF800
07F800
07F800
07F800
07F800
07F800
07F800
07F800
07F800
07F800
07F800
07F800
07F800
07F800
07F800
07F800
07F800
07F800
07F800
07F800
07F800
07F800
07F800
07F800
07F800
3FFF80
3FFF80
3FFF80
3FFF80
3FFF80
ENDCHAR

STARTCHAR m
ENCODING 109
SWIDTH 1000 0
DWIDTH 50 0
BBX 49 25 1 0
BITMAP
00707E007E0000
07F1FF83FF8000
3FF7FFCFFFC000
3FFFFFFFFFE000
3FFFFFFFFFE000
3FFFFFFFFFF000
3FFE0FFE1FF000
07FC0FF80FF000
07F80FF00FF000
07F80FF00FF000
07F80FF00FF000
07F80FF00FF000
07F80FF00FF000
07F80FF00FF000
07F80FF00FF000
07F80FF00FF000
07F80FF00FF000
07F80FF00FF000
07F80FF00FF000
07F80FF00FF000
3FFF3FFE7FFF00
3FFF3FFE7FFF00
3FFF3FFE7FFF00
3FFF3FFE7FFF00
3FFF3FFE7FFF00
ENDCHAR

STARTCHAR n
ENCODING 110
SWIDTH 680 0
DWIDTH 34 0
BBX 33 25 1 0
BITMAP
00707E0000
07F1FF8000
7FF7FFC000
7FFFFFE000
7FFFFFF000
7FFFFFF000
7FFF0FF000
07FC0FF000
07F80FF000
07F80FF000
07F80FF000
07F80FF000
07F80FF000
07F80FF000
07F80FF000
07F80FF000
07F80FF000
07F80FF000
07F80FF000
07F80FF000
7FFE3FFF00
7FFE3FFF00
7FFE3FFF00
7FFE3FFF00
7FFE3FFF00
ENDCHAR

STARTCHAR o
ENCODING 111
SWIDTH 620 0
DWIDTH 31 0
BBX 30 26 0 -1
BITMAP
003FF000
00FFFC00
03FFFF00
07FFFF80
0FFFFFC0
1FFCFFE0
1FF03FE0
3FE01FF0
3FE01FF0
3FC00FF0
3FC00FF8
7FC00FF8
7FC00FF8
7FC00FF8
7FC00FF8
7FC00FF8
3FC00FF0
3FE01FF0
3FE01FF0
1FF03FE0
1FFCFFE0
0FFFFFC0
07FFFF80
03FFFF00
00FFFC00
003FF000
ENDCHAR

STARTCHAR p
ENCODING 112
SWIDTH 640 0
DWIDTH 32 0
BBX 31 36 0 -11
BITMAP
00707E00
07F3FF80
7FF7FFC0
7FFFFFE0
7FFFFFF0
7FFFFFF0
7FFE1FF8
07F80FF8
07F80FF8
07F807F8
07F807FC
07F807FC
07F807FC
07F807FC
07F807FC
07F807FC
07F807F8
07F807F8
07F80FF8
07FC1FF0
07FE3FF0
07FFFFE0
07FFFFE0
07FFFFC0
07FFFF00
07F9FC00
07F80000
07F80000
07F80000
07F80000
07F80000
7FFF8000
7FFF8000
7FFF8000
7FFF8000
7FFF8000
ENDCHAR

STARTCHAR q
ENCODING 113
SWIDTH 620 0
DWIDTH 31 0
BBX 31 36 1 -11
BITMAP
007F0000
01FFCFC0
03FFFFC0
07FFFFC0
0FFFFFC0
1FF8FFC0
1FF07FC0
3FE03FC0
3FC03FC0
3FC03FC0
3FC03FC0
7FC03FC0
7FC03FC0
7FC03FC0
7FC03FC0
3FC03FC0
3FC03FC0
3FE03FC0
3FE03FC0
1FF0FFC0
1FFFFFC0
0FFFFFC0
07FFFFC0
03FFFFC0
01FFBFC0
007C3FC0
00003FC0
00003FC0
00003FC0
00003FC0
00003FC0
0001FFFC
0001FFFC
0001FFFC
0001FFFC
0001FFFC
ENDCHAR

STARTCHAR r
ENCODING 114
SWIDTH 460 0
DWIDTH 23 0
BBX 24 25 1 0
BITMAP
00F0F8
0FF3FC
3FF7FC
3FFFFC
3FFFFC
3FFFFC
3FFFFC
07FFF8
07F800
07F800
07F800
07F800
07F800
07F800
07F800
07F800
07F800
07F800
07F800
07F800
3FFF80
3FFF80
3FFF80
3FFF80
3FFF80
ENDCHAR

STARTCHAR s
ENCODING 115
SWIDTH 520 0
DWIDTH 26 0
BBX 27 26 0 -1
BITMAP
007E0000
03FFBC00
07FFFC00
0FFFFE00
1FFFFE00
3FC1FE00
3F80FE00
3FC03F00
3FF01C00
3FFE0000
1FFFC000
1FFFF000
0FFFFC00
03FFFE00
00FFFF00
043FFF80
1E07FF80
7F00FF80
3F803F80
3FC03F80
3FF07F80
1FFFFF00
1FFFFE00
0FFFFC00
0F7FF800
000FE000
ENDCHAR

STARTCHAR t
ENCODING 116
SWIDTH 460 0
DWIDTH 23 0
BBX 23 33 0 -1
BITMAP
00F800
00F800
00F800
01F800
01F800
03F800
07F800
0FF800
7FFFF8
7FFFF8
7FFFF8
7FFFF8
7FFFF8
07F800
07F800
07F800
07F800
07F800
07F800
07F800
07F800
07F800
07F800
07F800
07F800
07F800
07FC04
07FE1C
03FFFC
03FFFC
01FFFC
00FFFC
003FE0
ENDCHAR

STARTCHAR u
ENCODING 117
SWIDTH 660 0
DWIDTH 33 0
BBX 34 25 0 -1
BITMAP
3FF87FF800
3FF87FF800
3FF87FF800
3FF87FF800
3FF87FF800
07F807F800
07F807F800
07F807F800
07F807F800
07F807F800
07F807F800
07F807F800
07F807F800
07F807F800
07F807F800
07F807F800
07F807F800
07F80FF800
07FC3FF800
07FFFFFC00
03FFFFFF80
03FFFFFF80
01FFFBFF80
00FFE3FF80
003F03E000
ENDCHAR

STARTCHAR v
ENCODING 118
SWIDTH 600 0
DWIDTH 30 0
BBX 32 24 -1 0
BITMAP
7FFF3FFE
7FFF3FFE
7FFF3FFE
7FFF3FFE
7FFF3FFE
0FF807F0
0FF807E0
07FC07E0
07FC0FE0
03FC0FC0
03FE0FC0
01FE1F80
01FF1F80
00FF3F00
00FFBF00
007FFE00
007FFE00
003FFC00
003FFC00
001FF800
001FF800
000FF000
000FF000
000FE000
ENDCHAR

STARTCHAR w
ENCODING 119
SWIDTH 800 0
DWIDTH 40 0
BBX 42 24 -1 0
BITMAP
7FFCFFF3FF80
7FFCFFF3FF80
7FFCFFF3FF80
7FFCFFF3FF80
7FFCFFF3FF80
0FF07FC0FC00
0FF03FC0FC00
07F83FC0F800
07F81FC1F800
07F81FE1F800
03FC3FE1F000
03FC3FE3F000
03FC3FF3F000
01FE7FF3E000
01FE7FF7E000
00FEFBFFC000
00FFF3FFC000
00FFF3FFC000
007FE1FF8000
007FE1FF8000
003FE1FF0000
003FC0FF0000
003FC0FF0000
001FC07E0000
ENDCHAR

STARTCHAR x
ENCODING 120
SWIDTH 600 0
DWIDTH 30 0
BBX 34 24 -2 0
BITMAP
1FFFCFFE00
1FFFCFFE00
1FFFCFFE00
1FFFCFFE00
1FFFCFFE00
03FF03F000
01FF87E000
00FF8FC000
007FCF8000
003FFF0000
001FFF0000
001FFE0000
003FFE0000
007FFF0000
007CFF8000
00F87FC000
01F83FE000
03F01FF000
07E01FF800
3FFC7FFF00
3FFC7FFF00
3FFC7FFF00
3FFC7FFF00
3FFC7FFF00
ENDCHAR

STARTCHAR y
ENCODING 121
SWIDTH 620 0
DWIDTH 31 0
BBX 33 36 -1 -12
BITMAP
7FFF9FFF00
7FFF9FFF00
7FFF9FFF00
7FFF9FFF00
7FFF9FFF00
0FFC03F800
07FC03F000
07FC07F000
03FE07E000
03FE07E000
01FF0FC000
01FF0FC000
00FF1F8000
00FF9F8000
007FBF0000
007FFF0000
003FFE0000
003FFE0000
001FFE0000
001FFC0000
001FFC0000
000FF80000
000FF80000
0007F00000
0007F00000
0007E00000
0007E00000
000FC00000
1F0FC00000
1F9F800000
3FFF800000
3FFF000000
3FFE000000
1FFE000000
0FF8000000
03E0000000
ENDCHAR

STARTCHAR z
ENCODING 122
SWIDTH 560 0
DWIDTH 28 0
BBX 29 24 0 0
BITMAP
07FFFFC0
07FFFFC0
0FFFFFC0
0FFFFFC0
1FFFFFC0
1FC1FF80
3F83FF00
3F07FE00
1E0FFC00
041FF800
003FF000
007FE000
00FFC000
01FF8000
03FF0180
07FE03E0
0FFC03E0
1FF80FE0
3FF03FC0
7FFFFFC0
7FFFFFC0
7FFFFF80
7FFFFF80
7FFFFF80
ENDCHAR

STARTCHAR braceleft
ENCODING 123
SWIDTH 320 0
DWIDTH 16 0
BBX 16 44 1 -9
BITMAP
001E
0078
01F0
01E0
03C0
07C0
07C0
07C0
07E0
07E0
07E0
07E0
03E0
03E0
03E0
03E0
03E0
03C0
0780
0700
1E00
7800
7800
0E00
0700
0780
03C0
03E0
03E0
03E0
03E0
03E0
07E0
07E0
07C0
07C0
07C0
07C0
07C0
03C0
03E0
01F0
007C
001E
ENDCHAR

STARTCHAR bar
ENCODING 124
SWIDTH 600 0
DWIDTH 30 0
BBX 10 47 10 -11
BITMAP
3F00
3F00
3F00
3F00
3F00
3F00
3F00
3F00
3F00
3F00
3F00
3F00
3F00
3F00
3F00
3F00
3F00
3F00
3F00
3F00
3F00
3F00
3F00
3F00
3F00
3F00
3F00
3F00
3F00
3F00
3F00
3F00
3F00
3F00
3F00
3F00
3F00
3F00
3F00
3F00
3F00
3F00
3F00
3F00
3F00
3F00
3F00
ENDCHAR

STARTCHAR braceright
ENCODING 125
SWIDTH 320 0
DWIDTH 16 0
BBX 16 44 -1 -9
BITMAP
7800
1E00
0F80
07C0
03C0
03E0
03E0
03E0
03E0
03E0
07E0
07E0
07C0
07C0
07C0
07C0
07C0
03C0
01E0
00E0
0078
001E
001E
0078
00E0
01E0
03C0
07C0
07C0
07C0
07C0
07E0
07E0
07E0
07E0
03E0
03E0
03E0
03E0
03C0
07C0
0F80
3E00
7000
ENDCHAR

STARTCHAR asciitilde
ENCODING 126
SWIDTH 600 0
DWIDTH 30 0
BBX 28 9 1 12
BITMAP
01E00180
07FC03C0
0FFF87C0
1FFFFFC0
1FFFFF80
3E0FFF00
3C01FE00
18007C00
08000000
ENDCHAR

STARTCHAR space
ENCODING 160
SWIDTH 340 0
DWIDTH 21 0
BBX 0 0 0 0
BITMAP
ENDCHAR

STARTCHAR Aogonek
ENCODING 161
SWIDTH 720 0
DWIDTH 36 0
BBX 39 42 -1 -8
BITMAP
0001FE0000
0001FF0000
0003FF0000
0003FF0000
0003FF8000
0007FF8000
0007FFC000
000FFFC000
000FFFC000
000FFFE000
001FBFE000
001F9FF000
001F1FF000
003F1FF000
003F0FF800
007E0FF800
007E07FC00
007E07FC00
00FFFFFC00
00FFFFFE00
01FFFFFE00
01FFFFFE00
01FFFFFF00
03F001FF00
03F001FF80
07F000FF80
07E000FF80
07E000FFC0
0FE000FFE0
7FFC07FFF8
7FFC07FFF8
7FFC07FFF8
7FFC07FFF8
7FFC07FFF8
0000000700
0000000E00
0000001E00
0000001E00
0000001FF0
0000001FE0
0000000FE0
0000000780
ENDCHAR

STARTCHAR afii240
ENCODING 162
SWIDTH 556 0
DWIDTH 28 0
BBX 30 23 0 0
BITMAP
3FF8FFC0
1FF03F00
0FE01C00
0FE03800
0FE03000
0FE06000
0FE0C000
0FE18000
0FE38000
0FE7C000
0FEFE000
0FFFE000
0FFFF000
0FE7F800
0FE3F800
0FE3FC00
0FE1FE00
0FE0FF00
0FE07F00
0FE07F80
0FE03FC0
1FF03FE0
3FF8FFF0
ENDCHAR

STARTCHAR Rcommaaccent
ENCODING 163
SWIDTH 780 0
DWIDTH 39 0
BBX 41 46 0 -12
BITMAP
3FFFFFF80000
3FFFFFFE0000
3FFFFFFF8000
3FFFFFFFC000
3FFFFFFFE000
03FC00FFE000
03FC003FF000
03FC001FF000
03FC001FF000
03FC001FF000
03FC001FF000
03FC001FF000
03FC003FE000
03FC00FFE000
03FFFFFFC000
03FFFFFF8000
03FFFFFF0000
03FFFFFC0000
03FFFFE00000
03FC3FE00000
03FC3FF00000
03FC1FF80000
03FC0FFC0000
03FC07FE0000
03FC07FF0000
03FC03FF8000
03FC01FF8000
03FC00FFC000
07FE00FFE000
3FFFC07FFE00
3FFFC03FFE00
3FFFC01FFE00
3FFFC01FFE00
3FFFC00FFE00
000000000000
000000000000
000078000000
0000FC000000
0000FE000000
0000FE000000
00007E000000
00000E000000
00001C000000
00003C000000
000078000000
000030000000
ENDCHAR

STARTCHAR currency
ENCODING 164
SWIDTH 600 0
DWIDTH 30 0
BBX 29 25 1 5
BITMAP
0C000180
1E0F83C0
3F7FF7E0
3FFFFFE0
1FFFFFC0
0FFFFF80
07F07F00
0FC01F80
0F800F80
0F800FC0
1F0007C0
1F0007C0
1F0007C0
1F0007C0
1F0007C0
0F800FC0
0F800F80
0FC01F80
07F07F00
0FFFFF80
1FFFFFC0
3FFFFFE0
3F7FF7E0
1E0F83C0
0C000180
ENDCHAR

STARTCHAR Itilde
ENCODING 165
SWIDTH 400 0
DWIDTH 20 0
BBX 20 43 0 0
BITMAP
07E1C0
1FFFC0
3FFFC0
7FFFC0
7FFF80
10FE00
000000
000000
000000
3FFFC0
3FFFC0
3FFFC0
3FFFC0
3FFFC0
07FE00
03FC00
03FC00
03FC00
03FC00
03FC00
03FC00
03FC00
03FC00
03FC00
03FC00
03FC00
03FC00
03FC00
03FC00
03FC00
03FC00
03FC00
03FC00
03FC00
03FC00
03FC00
03FC00
03FE00
3FFFC0
3FFFC0
3FFFC0
3FFFC0
3FFFC0
ENDCHAR

STARTCHAR Lcommaaccent
ENCODING 166
SWIDTH 640 0
DWIDTH 32 0
BBX 34 46 0 -12
BITMAP
3FFFC00000
3FFFC00000
3FFFC00000
3FFFC00000
3FFFC00000
07FE000000
03FC000000
03FC000000
03FC000000
03FC000000
03FC000000
03FC000000
03FC000000
03FC000000
03FC000000
03FC000000
03FC000000
03FC000000
03FC000000
03FC000000
03FC000800
03FC001F00
03FC001F00
03FC003E00
03FC003E00
03FC007E00
03FC00FC00
03FC03FC00
03FE0FFC00
3FFFFFF800
3FFFFFF800
3FFFFFF800
3FFFFFF000
3FFFFFF000
0000000000
0000000000
0003800000
000FC00000
000FE00000
000FE00000
0007E00000
0001E00000
0001C00000
0003C00000
0007800000
0003000000
ENDCHAR

STARTCHAR section
ENCODING 167
SWIDTH 600 0
DWIDTH 30 0
BBX 30 43 0 -8
BITMAP
000FF000
007FFC00
01FFFF00
03FFFF80
07FFFFC0
07F87FE0
0FE01FE0
0FE01FE0
0FE00FE0
0FF00FC0
0FFC0380
0FFF8000
07FFF800
07FFFE00
01FFFF80
03FFFFC0
07FFFFE0
0FEFFFE0
0FC1FFF0
1FC01FF0
1FC00FF0
1FE007F0
1FFC07F0
1FFF87E0
0FFFF7E0
07FFFFC0
03FFFF80
01FFFF80
003FFFC0
000FFFE0
0001FFF0
0E003FF0
1F800FF0
3FC007F0
3FC007F0
3FE007F0
3FF00FF0
3FF81FE0
1FFFFFC0
0FFFFF80
07FFFF00
01FFFC00
003FE000
ENDCHAR

STARTCHAR hungarumlaut
ENCODING 168
SWIDTH 440 0
DWIDTH 22 0
BBX 18 9 3 28
BITMAP
0E0700
1F0F00
1F0F80
1F1F00
1E1F00
3E1E00
3C1C00
383800
303000
ENDCHAR

STARTCHAR Scaron
ENCODING 169
SWIDTH 660 0
DWIDTH 33 0
BBX 33 46 0 -1
BITMAP
0060030000
00FC1F8000
00FFFF8000
00FFFF8000
003FFE0000
001FFC0000
0007F00000
0001C00000
0000800000
0000000000
003FF00000
00FFFCF000
03FFFFF000
07FFFFF000
0FFFFFF800
1FF87FF800
1FE01FF800
1FC007F800
3FC003FC00
3FC001FC00
3FE000FC00
3FF8007C00
1FFE007800
1FFFE00000
1FFFFC0000
0FFFFF8000
07FFFFE000
03FFFFF000
01FFFFF800
007FFFFC00
000FFFFE00
1C01FFFE00
7E001FFF00
3E0007FF00
3F0001FF00
3F8000FF00
3FC000FF00
3FE000FF00
1FF000FE00
1FFC01FE00
1FFF87FC00
1FFFFFFC00
1FFFFFF800
0F7FFFE000
0F1FFFC000
0007FE0000
ENDCHAR

STARTCHAR Emacron
ENCODING 170
SWIDTH 720 0
DWIDTH 36 0
BBX 37 42 0 0
BITMAP
001FFFE000
001FFFE000
001FFFE000
001FFFE000
0000000000
0000000000
0000000000
0000000000
3FFFFFFC00
3FFFFFFE00
3FFFFFFE00
3FFFFFFF00
3FFFFFFF00
03FC03FF00
03FC007F80
03FC001F80
03FC001F80
03FC0F0FC0
03FC0F07C0
03FC0F0700
03FC0F0000
03FC1F0000
03FFFF0000
03FFFF0000
03FFFF0000
03FFFF0000
03FFFF0000
03FC1F0000
03FC0F0180
03FC0F01F0
03FC0F03E0
03FC0F03E0
03FC0007E0
03FC000FC0
03FC001FC0
03FC007FC0
03FE03FF80
3FFFFFFF80
3FFFFFFF80
3FFFFFFF00
3FFFFFFF00
3FFFFFFF00
ENDCHAR

STARTCHAR Gcommaaccent
ENCODING 171
SWIDTH 780 0
DWIDTH 39 0
BBX 40 47 0 -12
BITMAP
0003FF0000
000FFFEF00
003FFFFF00
00FFFFFF00
01FFFFFF80
03FFE3FF80
07FF007F80
07FE003FC0
0FFC001FC0
0FF8000FC0
1FF8000FC0
1FF00007E0
1FF00003C0
3FF0000200
3FF0000000
3FF0000000
3FE0000000
3FE003FFFE
3FE003FFFE
3FF003FFFE
3FF003FFFE
3FF003FFFE
3FF0001FF0
1FF0001FE0
1FF8001FE0
1FF8001FE0
0FFC001FE0
0FFE001FE0
07FF003FE0
03FFC0FFE0
03FFFFFFE0
00FFFFFFE0
007FFFFFE0
003FFFE7E0
0007FF83E0
0000780000
0000000000
00001C0000
00007E0000
00007F0000
00007F0000
00003F0000
0000070000
00000E0000
00001E0000
00003C0000
0000180000
ENDCHAR

STARTCHAR afii237
ENCODING 172
SWIDTH 667 0
DWIDTH 33 0
BBX 32 33 1 0
BITMAP
7FFFFFFE
7FFFFFFE
7C0FF03E
780FF01E
700FF00E
600FF006
600FF006
400FF002
400FF002
000FF000
000FF000
000FF000
000FF000
000FF000
000FF000
7FFFFFFE
7FFFFFFE
000FF000
000FF000
000FF000
000FF000
000FF000
000FF000
000FF000
000FF000
000FF000
000FF000
000FF000
000FF000
000FF000
000FF000
001FF800
01FFFF80
ENDCHAR

STARTCHAR hyphen
ENCODING 173
SWIDTH 360 0
DWIDTH 18 0
BBX 16 6 1 9
BITMAP
7FFE
7FFE
7FFE
7FFE
7FFE
7FFE
ENDCHAR

STARTCHAR Zcaron
ENCODING 174
SWIDTH 640 0
DWIDTH 32 0
BBX 34 45 -1 0
BITMAP
0038038000
007E1F8000
00FFFFC000
007FFF8000
001FFF0000
000FFC0000
0003F00000
0000E00000
0000000000
0000000000
0000000000
01FFFFFE00
03FFFFFE00
03FFFFFE00
07FFFFFE00
07FFFFFE00
0FFC0FFC00
0FF01FF800
0FC01FF000
1F803FF000
1F807FE000
3F00FFC000
3E00FF8000
0E01FF8000
0003FF0000
0007FE0000
0007FC0000
000FFC0000
001FF80000
003FF00000
003FF00000
007FE00C00
00FFC00F80
01FF801F00
01FF801F00
03FF003F00
07FE007E00
0FFC00FE00
0FFC03FE00
1FF81FFC00
3FFFFFFC00
3FFFFFF800
3FFFFFF800
3FFFFFF800
3FFFFFF000
ENDCHAR

STARTCHAR macron
ENCODING 175
SWIDTH 460 0
DWIDTH 23 0
BBX 19 4 2 29
BITMAP
3FFF80
3FFF80
3FFF80
3FFF80
ENDCHAR

STARTCHAR degree
ENCODING 176
SWIDTH 400 0
DWIDTH 20 0
BBX 16 14 3 21
BITMAP
07C0
0FF0
1FF8
3C78
783C
701C
701C
701C
701C
783C
3C78
1FF8
0FF0
07C0
ENDCHAR

STARTCHAR aogonek
ENCODING 177
SWIDTH 580 0
DWIDTH 29 0
BBX 31 33 -1 -8
BITMAP
003FC000
00FFF800
03FFFE00
07FFFF00
0FFFFF00
0FF0FF80
1FE07F80
1FC07F80
0FC07F80
07807F80
0003FF80
007FFF80
03FFFF80
0FFFFF80
1FFE7F80
1FF07F80
3FC07F80
3FC07F80
3FC07F80
3FE1FFC0
3FFFFFF8
1FFFFFF8
0FFFFFF8
07FF1FF8
01F807F8
00000780
00000700
00000F00
00000F00
00000FF8
00000FF0
000007F0
000003C0
ENDCHAR

STARTCHAR ogonek
ENCODING 178
SWIDTH 320 0
DWIDTH 16 0
BBX 11 8 3 -8
BITMAP
1C00
3800
7800
7800
7FC0
7F80
3F00
1E00
ENDCHAR

STARTCHAR rcommaaccent
ENCODING 179
SWIDTH 460 0
DWIDTH 23 0
BBX 24 37 1 -12
BITMAP
00F0F8
0FF3FC
3FF7FC
3FFFFC
3FFFFC
3FFFFC
3FFFFC
07FFF8
07F800
07F800
07F800
07F800
07F800
07F800
07F800
07F800
07F800
07F800
07F800
07F800
3FFF80
3FFF80
3FFF80
3FFF80
3FFF80
000000
000000
00F000
01F800
01FC00
01FC00
00FC00
001C00
003800
007800
00F000
006000
ENDCHAR

STARTCHAR acute
ENCODING 180
SWIDTH 400 0
DWIDTH 20 0
BBX 16 9 2 28
BITMAP
0030
00FC
01FC
07FE
0FFC
1FFC
3FF8
3FE0
3E00
ENDCHAR

STARTCHAR itilde
ENCODING 181
SWIDTH 360 0
DWIDTH 18 0
BBX 21 35 -2 0
BITMAP
07F0E0
0FFFE0
1FFFE0
3FFFC0
3FFF80
18FF00
000000
000000
000000
000000
001E00
00FE00
0FFE00
0FFE00
0FFE00
0FFE00
0FFE00
01FE00
01FE00
01FE00
01FE00
01FE00
01FE00
01FE00
01FE00
01FE00
01FE00
01FE00
01FE00
01FE00
0FFFE0
0FFFE0
0FFFE0
0FFFE0
0FFFE0
ENDCHAR

STARTCHAR lcommaaccent
ENCODING 182
SWIDTH 340 0
DWIDTH 17 0
BBX 18 48 0 -12
BITMAP
007800
07F800
3FF800
3FF800
3FF800
3FF800
3FF800
07F800
07F800
07F800
07F800
07F800
07F800
07F800
07F800
07F800
07F800
07F800
07F800
07F800
07F800
07F800
07F800
07F800
07F800
07F800
07F800
07F800
07F800
07F800
07F800
3FFF80
3FFF80
3FFF80
3FFF80
3FFF80
000000
000000
01E000
03F000
03F800
03F800
01F800
003800
007000
00F000
01E000
00C000
ENDCHAR

STARTCHAR caron
ENCODING 183
SWIDTH 500 0
DWIDTH 25 0
BBX 21 8 2 28
BITMAP
1C01C0
3F87E0
3FFFE0
3FFFE0
0FFF80
03FE00
01FC00
007000
ENDCHAR

STARTCHAR commaaccent
ENCODING 184
SWIDTH 333 0
DWIDTH 17 0
BBX 11 10 3 -12
BITMAP
1E00
3F00
3F80
3F80
1F80
0380
0700
0F00
1E00
0C00
ENDCHAR

STARTCHAR scaron
ENCODING 185
SWIDTH 520 0
DWIDTH 26 0
BBX 27 37 0 -1
BITMAP
07003800
07E0F800
0FFFFC00
07FFFC00
03FFF000
00FFC000
003F0000
001E0000
00000000
00000000
00000000
007E0000
03FFBC00
0FFFFC00
0FFFFE00
1FFFFE00
3FC1FE00
3F80FE00
3FC03F00
3FF01C00
3FFE0000
1FFFC000
1FFFF000
0FFFFC00
03FFFE00
00FFFF00
043FFF80
1E07FF80
7F00FF80
3F803F80
3FC03F80
3FF07F80
1FFFFF00
1FFFFE00
0FFFFC00
0F7FF800
000FE000
ENDCHAR

STARTCHAR emacron
ENCODING 186
SWIDTH 580 0
DWIDTH 29 0
BBX 28 34 1 -1
BITMAP
03FFF800
03FFF800
03FFF800
03FFF800
00000000
00000000
00000000
00000000
001F8000
00FFF000
03FFFC00
07FFFE00
0FFFFF00
1FF0FF00
1FE07F80
3FE03F80
3FC03F80
3FFFFFC0
7FFFFFC0
7FFFFFC0
7FFFFFC0
7FC00000
7FC00000
3FC00000
3FE00000
3FE00300
1FF00F80
1FF83FC0
0FFFFF80
07FFFF00
03FFFE00
01FFFC00
007FF000
001F8000
ENDCHAR

STARTCHAR gcommaaccent
ENCODING 187
SWIDTH 580 0
DWIDTH 29 0
BBX 32 48 -1 -11
BITMAP
00018000
0003C000
00078000
00070000
000F0000
000FC000
000FE000
000FE000
0007E000
00038000
00000000
00000078
001F81FC
00FFF3FC
01FFFFFC
03FFFFFC
07FFFFF8
0FF87F80
0FF07F80
1FE03FC0
1FE03FC0
1FE03FC0
1FE03FC0
0FF03FC0
0FF87F80
0FFFFF80
07FFFF00
01FFFE00
03FFF800
07EFC000
0FC00000
1FC00000
1FFF0000
1FFFFE00
1FFFFFC0
0FFFFFF0
07FFFFF8
03FFFFFC
07FFFFFC
1FC03FFC
3F8003FC
3F8001FC
3FC003FC
3FF00FF8
1FFFFFF0
0FFFFFE0
07FFFF80
007FFC00
ENDCHAR

STARTCHAR afii253
ENCODING 188
SWIDTH 333 0
DWIDTH 17 0
BBX 18 32 0 0
BITMAP
002000
002000
006000
00E000
00E000
01E000
03E000
07E000
0FE000
3FFF00
7FFF00
0FE000
0FE000
0FE000
0FE000
0FE000
0FE000
7FFF00
7FFF00
0FE000
0FE000
0FE000
0FE000
0FE000
0FE000
0FE000
0FE000
0FE100
0FF300
07FE00
03FC00
00F000
ENDCHAR

STARTCHAR afii238
ENCODING 189
SWIDTH 757 0
DWIDTH 38 0
BBX 37 35 0 -1
BITMAP
7FFC0FC000
0FFC1FF000
03FC70FC00
03FCE03E00
03FCC03F00
03FD801F00
03FF001F80
03FE001F80
03FE001FC0
03FC001FC0
03FC001FE0
03FC001FE0
03FC001FE0
03FC001FE0
03FC001FF0
03FC001FF0
03FC001FF0
03FC001FF0
03FC001FF0
03FC001FF0
03FC001FF0
03FC001FF0
03FC001FE0
03FC001FE0
03FC001FE0
03FC001FE0
03FC001FC0
03FC0F1FC0
03FC1F9F80
03FC1F9F80
03FC1F9F00
03FC1F9E00
07FE0F9C00
7FFFEFF800
000003E000
ENDCHAR

STARTCHAR zcaron
ENCODING 190
SWIDTH 560 0
DWIDTH 28 0
BBX 29 36 0 0
BITMAP
01800C00
03F07E00
03FFFE00
03FFFE00
00FFF800
007FF000
001FC000
000F0000
00020000
00000000
00000000
00000000
07FFFFC0
07FFFFC0
0FFFFFC0
0FFFFFC0
1FFFFFC0
1FC1FF80
3F03FF00
3F07FE00
1E0FFC00
041FF800
003FF000
007FE000
00FFC000
01FF8000
03FF0180
07FE03E0
0FFC03E0
1FF80FE0
3FF01FC0
7FFFFFC0
7FFFFFC0
7FFFFF80
7FFFFF80
7FFFFF80
ENDCHAR

STARTCHAR afii254
ENCODING 191
SWIDTH 556 0
DWIDTH 28 0
BBX 25 34 0 -11
BITMAP
3FE1F800
1FE7FC00
0FEFFE00
0FF8FE00
0FF07F00
0FE07F00
0FE07F00
0FE07F00
0FE07F00
0FE07F00
0FE07F00
0FE07F00
0FE07F00
0FE07F00
0FE07F00
0FE07F00
0FE07F00
0FE07F00
0FE07F00
0FE07F00
0FE07F00
1FF07F00
3FF87F00
00007F00
00007F00
00007F00
00007F00
001C7F00
001E7F00
003E7E00
003E7E00
001E7C00
000FF800
0003E000
ENDCHAR

STARTCHAR Amacron
ENCODING 192
SWIDTH 720 0
DWIDTH 36 0
BBX 38 42 -1 0
BITMAP
001FFFE000
001FFFE000
001FFFE000
001FFFE000
0000000000
0000000000
0000000000
0000000000
0001FE0000
0001FF0000
0003FF0000
0003FF0000
0003FF8000
0007FF8000
0007FF8000
000FFFC000
000FFFC000
000FBFE000
001FBFE000
001F9FE000
003F1FF000
003F1FF000
003F0FF800
007E0FF800
007E0FF800
00FC07FC00
00FFFFFC00
00FFFFFE00
01FFFFFE00
01FFFFFE00
03FFFFFF00
03F001FF00
03F001FF80
07E000FF80
07E000FF80
0FE000FFC0
0FE000FFC0
7FFC07FFF8
7FFC07FFF8
7FFC07FFF8
7FFC07FFF8
7FFC07FFF8
ENDCHAR

STARTCHAR Aacute
ENCODING 193
SWIDTH 720 0
DWIDTH 36 0
BBX 38 46 -1 0
BITMAP
0000020000
00001F8000
00003F8000
00007F8000
0000FF8000
0003FF8000
0007FF8000
0007FE0000
0007E00000
0000000000
0000000000
0000000000
0001FE0000
0001FF0000
0003FF0000
0003FF0000
0003FF8000
0007FF8000
0007FF8000
000FFFC000
000FFFC000
000FBFE000
001FBFE000
001F9FE000
003F1FF000
003F1FF000
003F0FF800
007E0FF800
007E0FF800
00FC07FC00
00FFFFFC00
00FFFFFE00
01FFFFFE00
01FFFFFE00
03FFFFFF00
03F001FF00
03F001FF80
07E000FF80
07E000FF80
0FE000FFC0
0FE000FFC0
7FFC07FFF8
7FFC07FFF8
7FFC07FFF8
7FFC07FFF8
7FFC07FFF8
ENDCHAR

STARTCHAR Acircumflex
ENCODING 194
SWIDTH 720 0
DWIDTH 36 0
BBX 38 45 -1 0
BITMAP
0000300000
0000FC0000
0003FF0000
0007FF8000
001FFFE000
003FFFF000
001F87E000
001E01E000
0000000000
0000000000
0000000000
0001FE0000
0001FF0000
0003FF0000
0003FF0000
0003FF8000
0007FF8000
0007FF8000
000FFFC000
000FFFC000
000FBFE000
001FBFE000
001F9FE000
003F1FF000
003F1FF000
003F0FF800
007E0FF800
007E0FF800
00FC07FC00
00FFFFFC00
00FFFFFE00
01FFFFFE00
01FFFFFE00
03FFFFFF00
03F001FF00
03F001FF80
07E000FF80
07E000FF80
0FE000FFC0
0FE000FFC0
7FFC07FFF8
7FFC07FFF8
7FFC07FFF8
7FFC07FFF8
7FFC07FFF8
ENDCHAR

STARTCHAR Atilde
ENCODING 195
SWIDTH 720 0
DWIDTH 36 0
BBX 38 44 -1 0
BITMAP
0003F0E000
000FFFF000
001FFFE000
001FFFE000
003FFFC000
000CFF8000
0000000000
0000000000
0000000000
0000000000
0001FE0000
0001FF0000
0003FF0000
0003FF0000
0003FF8000
0007FF8000
0007FF8000
000FFFC000
000FFFC000
000FBFE000
001FBFE000
001F9FE000
003F1FF000
003F1FF000
003F0FF800
007E0FF800
007E0FF800
00FC07FC00
00FFFFFC00
00FFFFFE00
01FFFFFE00
01FFFFFE00
03FFFFFF00
03F001FF00
03F001FF80
07E000FF80
07E000FF80
0FE000FFC0
0FE000FFC0
7FFC07FFF8
7FFC07FFF8
7FFC07FFF8
7FFC07FFF8
7FFC07FFF8
ENDCHAR

STARTCHAR Adieresis
ENCODING 196
SWIDTH 720 0
DWIDTH 36 0
BBX 39 44 -2 0
BITMAP
000E00E000
001F01F000
003F83F800
003F83F800
003F83F800
001F81F800
001F01F000
0000000000
0000000000
0000000000
0000FF0000
0001FF0000
0001FF0000
0003FF8000
0003FF8000
0003FFC000
0007FFC000
0007FFC000
000FFFE000
000FFFE000
000FDFF000
001F9FF000
001F8FF000
003F0FF800
003F0FF800
003F07FC00
007E07FC00
007E07FC00
00FFFFFE00
00FFFFFE00
00FFFFFF00
01FFFFFF00
01FFFFFF00
03F800FF80
03F000FF80
03F000FFC0
07E0007FC0
07E0007FC0
0FE0007FE0
7FFE07FFFC
7FFE07FFFC
7FFE07FFFC
7FFE07FFFC
7FFE07FFFC
ENDCHAR

STARTCHAR Aring
ENCODING 197
SWIDTH 720 0
DWIDTH 36 0
BBX 39 48 -2 0
BITMAP
00007C0000
0000FE0000
0001FF0000
0003C78000
0003838000
0003838000
0003838000
0003C78000
0001FF0000
0000FE0000
00007C0000
0000000000
0000000000
0000000000
0001FF0000
0001FF0000
0001FF8000
0003FF8000
0003FF8000
0003FFC000
0007FFC000
0007FFC000
000FFFE000
000FFFE000
000FDFF000
001F9FF000
001F8FF000
003F0FF800
003F0FF800
003F07FC00
007E07FC00
007E07FC00
00FFFFFE00
00FFFFFE00
00FFFFFF00
01FFFFFF00
01FFFFFF00
03F800FF80
03F000FF80
03F000FFC0
07E0007FC0
07E0007FC0
0FE0007FE0
7FFE07FFFC
7FFE07FFFC
7FFE07FFFC
7FFE07FFFC
7FFE07FFFC
ENDCHAR

STARTCHAR AE
ENCODING 198
SWIDTH 1140 0
DWIDTH 57 0
BBX 60 34 -2 0
BITMAP
000FFFFFFFFFF800
000FFFFFFFFFFC00
000FFFFFFFFFFC00
000FFFFFFFFFFC00
000FFFFFFFFFFE00
0001FC0FF007FE00
0001F80FF000FF00
0001F80FF0007F00
0003F00FF0003F00
0003F00FF01E1F80
0007F00FF01E0F80
0007E00FF01E0E00
000FE00FF01E0000
000FC00FF03E0000
001FC00FFFFE0000
001F800FFFFE0000
003FFFFFFFFE0000
003FFFFFFFFE0000
007FFFFFFFFE0000
007FFFFFF03E0000
00FFFFFFF01E0200
00FE000FF01E03C0
00FC000FF01E07C0
01FC000FF01E07C0
01F8000FF0000FC0
03F8000FF0001F80
03F0000FF0003F80
07F0000FF000FF80
0FF0000FF803FF00
7FFF003FFFFFFF00
7FFF00FFFFFFFF00
7FFF00FFFFFFFE00
7FFF00FFFFFFFE00
7FFF00FFFFFFFC00
ENDCHAR

STARTCHAR Iogonek
ENCODING 199
SWIDTH 400 0
DWIDTH 20 0
BBX 20 42 0 -8
BITMAP
7FFFC0
7FFFC0
7FFFC0
7FFFC0
7FFFC0
07FC00
07FC00
07FC00
07FC00
07FC00
07FC00
07FC00
07FC00
07FC00
07FC00
07FC00
07FC00
07FC00
07FC00
07FC00
07FC00
07FC00
07FC00
07FC00
07FC00
07FC00
07FC00
07FC00
07FC00
7FFFC0
7FFFC0
7FFFC0
7FFFC0
7FFFC0
01E000
03C000
03C000
03C000
03FE00
03FC00
01F800
00F000
ENDCHAR

STARTCHAR Ccaron
ENCODING 200
SWIDTH 740 0
DWIDTH 37 0
BBX 38 47 0 -1
BITMAP
0008004000
001E01E000
001FCFE000
003FFFF000
001FFFC000
0007FF8000
0001FE0000
0000FC0000
0000300000
0000000000
0000000000
0003FF0000
001FFFEF00
003FFFFF00
00FFFFFF00
01FFFFFF80
03FFC3FF80
07FF00FF80
07FE003F80
0FFC001FC0
0FF8000FC0
1FF8000FC0
1FF00007E0
3FF00003E0
3FF0000380
3FE0000000
3FE0000000
3FE0000000
3FE0000000
3FE0000000
3FE0000000
3FF0000000
3FF0000000
3FF0000000
1FF8000080
1FF80001E0
1FFC0003F0
0FFC0007F0
0FFE000FE0
07FF001FC0
03FFC0FF80
01FFFFFF00
00FFFFFE00
007FFFFC00
003FFFF000
000FFFC000
0001FE0000
ENDCHAR

STARTCHAR Eacute
ENCODING 201
SWIDTH 720 0
DWIDTH 36 0
BBX 37 46 0 0
BITMAP
00000E0000
00003F0000
00007F8000
0000FF8000
0001FF8000
0003FF8000
0007FF0000
000FFC0000
0007C00000
0000000000
0000000000
0000000000
3FFFFFFC00
3FFFFFFE00
3FFFFFFE00
3FFFFFFF00
3FFFFFFF00
03FC03FF00
03FC007F80
03FC001F80
03FC001F80
03FC0F0FC0
03FC0F07C0
03FC0F0700
03FC0F0000
03FC1F0000
03FFFF0000
03FFFF0000
03FFFF0000
03FFFF0000
03FFFF0000
03FC1F0000
03FC0F0180
03FC0F01F0
03FC0F03E0
03FC0F03E0
03FC0007E0
03FC000FC0
03FC001FC0
03FC007FC0
03FE03FF80
3FFFFFFF80
3FFFFFFF80
3FFFFFFF00
3FFFFFFF00
3FFFFFFF00
ENDCHAR

STARTCHAR Eogonek
ENCODING 202
SWIDTH 720 0
DWIDTH 36 0
BBX 37 43 0 -9
BITMAP
3FFFFFFC00
3FFFFFFE00
3FFFFFFE00
3FFFFFFE00
3FFFFFFF00
03FC03FF00
03FC007F00
03FC003F80
03FC001F80
03FC0F0F80
03FC0F07C0
03FC0F0700
03FC0F0000
03FC1F0000
03FFFF0000
03FFFF0000
03FFFF0000
03FFFF0000
03FFFF0000
03FC1F0000
03FC0F0100
03FC0F01E0
03FC0F03E0
03FC0F07E0
03FC0007C0
03FC000FC0
03FC001FC0
03FC007F80
03FE03FF80
3FFFFFFF80
3FFFFFFF00
3FFFFFFF00
3FFFFFFF00
3FFFFFFE00
0000007800
000000F000
000000E000
000001E000
000001E000
000001FF00
000001FE00
000000FE00
0000007800
ENDCHAR

STARTCHAR Edieresis
ENCODING 203
SWIDTH 720 0
DWIDTH 36 0
BBX 37 44 0 0
BITMAP
001C01C000
003E03E000
007F07F000
007F07F000
007F07F000
003E03E000
001E01E000
0000000000
0000000000
0000000000
3FFFFFFC00
3FFFFFFE00
3FFFFFFE00
3FFFFFFF00
3FFFFFFF00
03FC03FF00
03FC007F80
03FC001F80
03FC001F80
03FC0F0FC0
03FC0F07C0
03FC0F0700
03FC0F0000
03FC1F0000
03FFFF0000
03FFFF0000
03FFFF0000
03FFFF0000
03FFFF0000
03FC1F0000
03FC0F0180
03FC0F01F0
03FC0F03E0
03FC0F03E0
03FC0007E0
03FC000FC0
03FC001FC0
03FC007FC0
03FE03FF80
3FFFFFFF80
3FFFFFFF80
3FFFFFFF00
3FFFFFFF00
3FFFFFFF00
ENDCHAR

STARTCHAR Edotaccent
ENCODING 204
SWIDTH 720 0
DWIDTH 36 0
BBX 37 44 0 0
BITMAP
0000700000
0000F80000
0001FC0000
0001FC0000
0001FC0000
0000F80000
0000700000
0000000000
0000000000
0000000000
3FFFFFFC00
3FFFFFFE00
3FFFFFFE00
3FFFFFFF00
3FFFFFFF00
03FC03FF00
03FC007F80
03FC001F80
03FC001F80
03FC0F0FC0
03FC0F07C0
03FC0F0700
03FC0F0000
03FC1F0000
03FFFF0000
03FFFF0000
03FFFF0000
03FFFF0000
03FFFF0000
03FC1F0000
03FC0F0180
03FC0F01F0
03FC0F03E0
03FC0F03E0
03FC0007E0
03FC000FC0
03FC001FC0
03FC007FC0
03FE03FF80
3FFFFFFF80
3FFFFFFF80
3FFFFFFF00
3FFFFFFF00
3FFFFFFF00
ENDCHAR

STARTCHAR Iacute
ENCODING 205
SWIDTH 400 0
DWIDTH 20 0
BBX 20 45 0 0
BITMAP
003E00
007F00
00FF00
01FF00
03FF00
07FF00
0FFC00
0FE000
0C0000
000000
000000
3FFFC0
3FFFC0
3FFFC0
3FFFC0
3FFFC0
07FE00
03FC00
03FC00
03FC00
03FC00
03FC00
03FC00
03FC00
03FC00
03FC00
03FC00
03FC00
03FC00
03FC00
03FC00
03FC00
03FC00
03FC00
03FC00
03FC00
03FC00
03FC00
03FC00
07FE00
3FFFC0
3FFFC0
3FFFC0
3FFFC0
3FFFC0
ENDCHAR

STARTCHAR Icircumflex
ENCODING 206
SWIDTH 400 0
DWIDTH 20 0
BBX 22 45 -1 0
BITMAP
003000
00FC00
01FE00
07FF80
1FFFE0
3FFFF0
1FCFE0
1E01E0
000000
000000
000000
1FFFE0
1FFFE0
1FFFE0
1FFFE0
1FFFE0
03FF00
01FE00
01FE00
01FE00
01FE00
01FE00
01FE00
01FE00
01FE00
01FE00
01FE00
01FE00
01FE00
01FE00
01FE00
01FE00
01FE00
01FE00
01FE00
01FE00
01FE00
01FE00
01FE00
03FF00
1FFFE0
1FFFE0
1FFFE0
1FFFE0
1FFFE0
ENDCHAR

STARTCHAR Imacron
ENCODING 207
SWIDTH 400 0
DWIDTH 20 0
BBX 20 42 0 0
BITMAP
3FFFC0
3FFFC0
3FFFC0
3FFFC0
000000
000000
000000
000000
3FFFC0
3FFFC0
3FFFC0
3FFFC0
3FFFC0
07FE00
03FC00
03FC00
03FC00
03FC00
03FC00
03FC00
03FC00
03FC00
03FC00
03FC00
03FC00
03FC00
03FC00
03FC00
03FC00
03FC00
03FC00
03FC00
03FC00
03FC00
03FC00
03FC00
07FE00
3FFFC0
3FFFC0
3FFFC0
3FFFC0
3FFFC0
ENDCHAR

STARTCHAR Eth
ENCODING 208
SWIDTH 780 0
DWIDTH 39 0
BBX 39 34 0 0
BITMAP
3FFFFFC000
3FFFFFF800
3FFFFFFE00
3FFFFFFF00
0FFFFFFF80
03FC07FFC0
03FC01FFC0
03FC007FE0
03FC003FE0
03FC003FF0
03FC001FF0
03FC001FF8
03FC001FF8
03FC000FF8
03FC000FF8
3FFFF00FF8
3FFFF00FF8
3FFFF00FF8
3FFFF00FF8
03FC000FF8
03FC000FF8
03FC001FF8
03FC001FF0
03FC001FF0
03FC003FF0
03FC007FE0
03FC00FFC0
03FC01FFC0
07FE0FFF80
3FFFFFFF00
3FFFFFFE00
3FFFFFF800
3FFFFFE000
3FFFFF0000
ENDCHAR

STARTCHAR Ncommaaccent
ENCODING 209
SWIDTH 740 0
DWIDTH 37 0
BBX 38 46 0 -12
BITMAP
3FFF03FFF0
3FFF83FFF0
3FFF83FFF0
3FFFC3FFF0
3FFFC3FFF0
03FFE03F00
03FFE03F00
03FFF03F00
03FFF03F00
03FFF83F00
03F7F83F00
03F7FC3F00
03F3FC3F00
03F3FE3F00
03F1FE3F00
03F1FF3F00
03F0FF3F00
03F0FFBF00
03F07FBF00
03F07FFF00
03F03FFF00
03F03FFF00
03F01FFF00
03F01FFF00
03F00FFF00
03F00FFF00
03F007FF00
03F003FF00
03F003FF00
3FFF01FF00
3FFF01FF00
3FFF00FF00
3FFF00FF00
3FFF007F00
0000000000
0000000000
0000F00000
0001F80000
0001FC0000
0001FC0000
0000FC0000
00001C0000
00003C0000
0000780000
0000F00000
0000600000
ENDCHAR

STARTCHAR Omacron
ENCODING 210
SWIDTH 800 0
DWIDTH 40 0
BBX 40 43 0 -1
BITMAP
000FFFF000
000FFFF000
000FFFF000
000FFFF000
0000000000
0000000000
0000000000
0001FF8000
000FFFF000
003FFFFC00
007FFFFF00
01FFFFFF80
03FFE3FFC0
07FF00FFE0
07FE007FE0
0FFC003FF0
0FF8001FF8
1FF8001FF8
1FF0000FF8
1FF0000FFC
3FF0000FFC
3FF00007FC
3FE00007FC
3FE00007FC
3FE00007FC
3FE00007FC
3FE00007FC
3FE00007FC
3FF00007FC
3FF0000FFC
3FF0000FFC
1FF0000FF8
1FF8001FF8
0FF8001FF8
0FFC003FF0
07FE007FE0
07FF00FFE0
03FFC3FFC0
01FFFFFF80
00FFFFFF00
003FFFFC00
000FFFF000
0003FFC000
ENDCHAR

STARTCHAR Kcommaaccent
ENCODING 211
SWIDTH 800 0
DWIDTH 40 0
BBX 41 46 0 -12
BITMAP
3FFFC3FFFC00
3FFFC3FFFC00
3FFFC3FFFC00
3FFFC3FFFC00
3FFFC3FFFC00
07FC007FE000
03FC007F8000
03FC00FF0000
03FC01FE0000
03FC03FC0000
03FC0FF80000
03FC1FE00000
03FC3FC00000
03FC7F800000
03FCFFC00000
03FDFFC00000
03FFFFE00000
03FFFFF00000
03FFFFF80000
03FFDFF80000
03FF8FFC0000
03FF07FE0000
03FE03FF0000
03FC03FF0000
03FC01FF8000
03FC00FFC000
03FC007FE000
03FC007FE000
07FC003FF000
3FFFC3FFFF00
3FFFC3FFFF00
3FFFC3FFFF00
3FFFC3FFFF00
3FFFC3FFFF00
000000000000
000000000000
000038000000
00007C000000
0000FE000000
0000FE000000
00007E000000
00000E000000
00001C000000
00003C000000
000078000000
000030000000
ENDCHAR

STARTCHAR Ocircumflex
ENCODING 212
SWIDTH 800 0
DWIDTH 40 0
BBX 40 47 0 -1
BITMAP
0000180000
00003C0000
0000FF0000
0003FFC000
0007FFE000
001FFFF800
001FE7F800
000F81F000
0004002000
0000000000
0000000000
0001FFC000
000FFFF800
003FFFFC00
00FFFFFF00
01FFFFFF80
03FFE3FFC0
07FF00FFE0
07FE007FE0
0FFC003FF0
0FF8001FF8
1FF8001FF8
1FF0000FF8
1FF0000FFC
3FF0000FFC
3FF00007FC
3FE00007FC
3FE00007FC
3FE00007FC
3FE00007FC
3FE00007FC
3FE00007FC
3FF00007FC
3FF0000FFC
3FF0000FFC
1FF0000FF8
1FF8001FF8
0FF8001FF8
0FFC003FF0
07FE007FE0
07FF00FFE0
03FFC3FFC0
01FFFFFF80
00FFFFFF00
003FFFFC00
000FFFF000
0003FFC000
ENDCHAR

STARTCHAR Otilde
ENCODING 213
SWIDTH 800 0
DWIDTH 40 0
BBX 40 45 0 -1
BITMAP
0001F87000
0007FFF800
000FFFF000
000FFFF000
001FFFE000
00043F8000
0000000000
0000000000
0000000000
0001FFC000
000FFFF800
003FFFFC00
00FFFFFF00
01FFFFFF80
03FFE3FFC0
07FF00FFE0
07FE007FE0
0FFC003FF0
0FF8001FF8
1FF8001FF8
1FF0000FF8
1FF0000FFC
3FF0000FFC
3FF00007FC
3FE00007FC
3FE00007FC
3FE00007FC
3FE00007FC
3FE00007FC
3FE00007FC
3FF00007FC
3FF0000FFC
3FF0000FFC
1FF0000FF8
1FF8001FF8
0FF8001FF8
0FFC003FF0
07FE007FE0
07FF00FFE0
03FFC3FFC0
01FFFFFF80
00FFFFFF00
003FFFFC00
000FFFF000
0003FFC000
ENDCHAR

STARTCHAR Odieresis
ENCODING 214
SWIDTH 800 0
DWIDTH 40 0
BBX 40 45 0 -1
BITMAP
000700E000
000F81F000
001FC3F800
001FC3F800
001FC3F800
000F81F000
000700E000
0000000000
0000000000
0001FFC000
000FFFF800
003FFFFC00
00FFFFFF00
01FFFFFF80
03FFE3FFC0
07FF00FFE0
07FE007FE0
0FFC003FF0
0FF8001FF8
1FF8001FF8
1FF0000FF8
1FF0000FFC
3FF0000FFC
3FF00007FC
3FE00007FC
3FE00007FC
3FE00007FC
3FE00007FC
3FE00007FC
3FE00007FC
3FF00007FC
3FF0000FFC
3FF0000FFC
1FF0000FF8
1FF8001FF8
0FF8001FF8
0FFC003FF0
07FE007FE0
07FF00FFE0
03FFC3FFC0
01FFFFFF80
00FFFFFF00
003FFFFC00
000FFFF000
0003FFC000
ENDCHAR

STARTCHAR multiply
ENCODING 215
SWIDTH 600 0
DWIDTH 30 0
BBX 26 22 2 6
BITMAP
0C000C00
1E001E00
3F003F00
3F807F00
1FC0FE00
0FE1FC00
07F3F800
03FFF000
01FFE000
00FFC000
007F8000
007F8000
00FFC000
01FFE000
03FFF000
07F3F800
0FE1FC00
1FC0FE00
3F807F00
3F003F00
1E001E00
0C000C00
ENDCHAR

STARTCHAR Oslash
ENCODING 216
SWIDTH 800 0
DWIDTH 40 0
BBX 40 36 0 -1
BITMAP
0001FFC010
000FFFF838
003FFFFC7C
00FFFFFFF8
01FFFFFFF0
03FFE3FFE0
07FF00FFE0
07FE007FE0
0FFC003FF0
0FF8003FF0
1FF8007FF8
1FF000FFF8
1FF001FFFC
3FF003EFFC
3FF007C7FC
3FE00F87FC
3FE01F07FC
3FE03E07FC
3FE07C07FC
3FE0F807FC
3FE1F007FC
3FF3E007FC
3FF7C00FFC
3FFF800FFC
1FFF000FF8
1FFE001FF8
0FFC001FF8
0FFC003FF0
07FE007FE0
07FF00FFE0
07FFC3FFC0
0FFFFFFF80
1FFFFFFF00
3E3FFFFC00
1C1FFFF000
0803FFC000
ENDCHAR

STARTCHAR Uogonek
ENCODING 217
SWIDTH 740 0
DWIDTH 37 0
BBX 39 43 -1 -9
BITMAP
3FFFE1FFF8
3FFFE1FFF8
3FFFE1FFF8
3FFFE1FFF8
3FFFE1FFF8
07FE001F80
03FE001F80
03FC001F80
03FC001F80
03FC001F80
03FC001F80
03FC001F80
03FC001F80
03FC001F80
03FC001F80
03FC001F80
03FC001F80
03FC001F80
03FC001F80
03FC001F80
03FC001F80
03FE001F80
03FE001F80
03FE001F80
03FE001F80
03FE001F80
03FF003F00
01FF007F00
01FFC0FF00
00FFFFFE00
007FFFFC00
003FFFF800
001FFFF000
0007FFC000
0001FE0000
00003C0000
0000380000
0000780000
0000788000
00007FC000
00007F8000
00003F0000
00001E0000
ENDCHAR

STARTCHAR Uacute
ENCODING 218
SWIDTH 740 0
DWIDTH 37 0
BBX 39 46 -1 -1
BITMAP
00000F8000
00003FC000
00007FC000
0000FFC000
0001FFC000
0003FF8000
0007FF0000
0007F00000
0002000000
0000000000
0000000000
3FFFC1FFF8
3FFFC1FFF8
3FFFC1FFF8
3FFFC1FFF8
3FFFC1FFF8
07FE001F80
03FC001F80
03FC001F80
03FC001F80
03FC001F80
03FC001F80
03FC001F80
03FC001F80
03FC001F80
03FC001F80
03FC001F80
03FC001F80
03FC001F80
03FC001F80
03FC001F80
03FC001F80
03FC001F80
03FC001F80
03FC001F80
03FE001F80
03FE001F80
03FF003F00
01FF007F00
01FFC1FE00
00FFFFFE00
007FFFFC00
003FFFF800
001FFFF000
0007FFC000
0000FE0000
ENDCHAR

STARTCHAR Ucircumflex
ENCODING 219
SWIDTH 740 0
DWIDTH 37 0
BBX 39 46 -1 -1
BITMAP
0000300000
00007C0000
0001FF0000
0007FF8000
000FFFE000
003FFFF800
001FC7F000
001E01E000
0008002000
0000000000
0000000000
3FFFC1FFF8
3FFFC1FFF8
3FFFC1FFF8
3FFFC1FFF8
3FFFC1FFF8
07FE001F80
03FC001F80
03FC001F80
03FC001F80
03FC001F80
03FC001F80
03FC001F80
03FC001F80
03FC001F80
03FC001F80
03FC001F80
03FC001F80
03FC001F80
03FC001F80
03FC001F80
03FC001F80
03FC001F80
03FC001F80
03FC001F80
03FE001F80
03FE001F80
03FF003F00
01FF007F00
01FFC1FE00
00FFFFFE00
007FFFFC00
003FFFF800
001FFFF000
0007FFC000
0000FE0000
ENDCHAR

STARTCHAR Udieresis
ENCODING 220
SWIDTH 740 0
DWIDTH 37 0
BBX 39 44 -1 -1
BITMAP
000E00E000
001F01F000
003F83F800
003F83F800
003F83F800
001F01F000
000E00E000
0000000000
0000000000
3FFFC1FFF8
3FFFC1FFF8
3FFFC1FFF8
3FFFC1FFF8
3FFFC1FFF8
07FE001F80
03FC001F80
03FC001F80
03FC001F80
03FC001F80
03FC001F80
03FC001F80
03FC001F80
03FC001F80
03FC001F80
03FC001F80
03FC001F80
03FC001F80
03FC001F80
03FC001F80
03FC001F80
03FC001F80
03FC001F80
03FC001F80
03FE001F80
03FE001F80
03FF003F00
01FF007F00
01FFC1FE00
00FFFFFE00
007FFFFC00
003FFFF800
001FFFF000
0007FFC000
0000FE0000
ENDCHAR

STARTCHAR Utilde
ENCODING 221
SWIDTH 740 0
DWIDTH 37 0
BBX 39 44 -1 -1
BITMAP
0001FC3800
0003FFF800
0007FFF800
000FFFF000
000FFFF000
00021FC000
0000000000
0000000000
0000000000
3FFFC1FFF8
3FFFC1FFF8
3FFFC1FFF8
3FFFC1FFF8
3FFFC1FFF8
07FE001F80
03FC001F80
03FC001F80
03FC001F80
03FC001F80
03FC001F80
03FC001F80
03FC001F80
03FC001F80
03FC001F80
03FC001F80
03FC001F80
03FC001F80
03FC001F80
03FC001F80
03FC001F80
03FC001F80
03FC001F80
03FC001F80
03FE001F80
03FE003F80
03FF003F00
01FF007F00
01FFC1FE00
00FFFFFE00
007FFFFC00
003FFFF800
001FFFF000
0007FFC000
0000FE0000
ENDCHAR

STARTCHAR Umacron
ENCODING 222
SWIDTH 740 0
DWIDTH 37 0
BBX 39 43 -1 -1
BITMAP
001FFFE000
001FFFE000
001FFFE000
001FFFE000
0000000000
0000000000
0000000000
0000000000
3FFFC1FFF8
3FFFC1FFF8
3FFFC1FFF8
3FFFC1FFF8
3FFFC1FFF8
07FE001F80
03FC001F80
03FC001F80
03FC001F80
03FC001F80
03FC001F80
03FC001F80
03FC001F80
03FC001F80
03FC001F80
03FC001F80
03FC001F80
03FC001F80
03FC001F80
03FC001F80
03FC001F80
03FC001F80
03FC001F80
03FC001F80
03FE001F80
03FE001F80
03FF003F00
01FF007F00
01FFC1FE00
00FFFFFE00
007FFFFC00
003FFFF800
001FFFF000
0007FFC000
0000FE0000
ENDCHAR

STARTCHAR germandbls
ENCODING 223
SWIDTH 660 0
DWIDTH 33 0
BBX 33 36 0 0
BITMAP
0007FE0000
003FFF8000
007FFFC000
00FFFFE000
01FFFFF000
03FF1FF000
03FC07F000
03FC07F800
07F807F800
07F81FF000
07F83FF000
07F87FF000
7FF8FFC000
7FF9FC0000
7FF9FC0000
7FF9FC0000
7FF9FE0000
07F9FF8000
07F8FFC000
07F8FFE000
07F87FF800
07F83FFC00
07F81FFE00
07F80FFE00
07F807FE00
07F801FF00
07F800FF00
07F8407F00
07F9F07F00
07FBF87F00
07FBFC7E00
7FFBFFFE00
7FF9FFFC00
7FF9FFF800
7FF87FF000
7FF81F8000
ENDCHAR

STARTCHAR amacron
ENCODING 224
SWIDTH 580 0
DWIDTH 29 0
BBX 30 34 0 -1
BITMAP
01FFFE00
01FFFE00
01FFFE00
01FFFE00
00000000
00000000
00000000
00000000
001FC000
00FFF800
03FFFE00
07FFFF00
0FFFFF00
0FF0FF80
1FE07F80
1FE07F80
0FC07F80
0F807F80
00007F80
003FFF80
01FFFF80
07FFFF80
0FFFFF80
1FF87F80
1FE07F80
3FC07F80
3FC07F80
3FC07F80
3FF3FFC0
3FFFFFF8
1FFFFFF8
0FFFDFF8
07FF0FF8
01F803F0
ENDCHAR

STARTCHAR aacute
ENCODING 225
SWIDTH 580 0
DWIDTH 29 0
BBX 30 38 0 -1
BITMAP
00007000
0001F800
0003FC00
0007FC00
000FFC00
001FFC00
007FF800
007FE000
007C0000
00000000
00000000
00000000
003FC000
00FFF800
03FFFE00
07FFFF00
0FFFFF00
0FF0FF80
1FE07F80
1FE07F80
0FC07F80
0F807F80
00007F80
003FFF80
01FFFF80
07FFFF80
0FFFFF80
1FF87F80
1FE07F80
3FC07F80
3FC07F80
3FC07F80
3FF3FFC0
3FFFFFF8
1FFFFFF8
0FFFDFF8
07FF0FF8
01F803F0
ENDCHAR

STARTCHAR acircumflex
ENCODING 226
SWIDTH 580 0
DWIDTH 29 0
BBX 30 37 0 -1
BITMAP
00038000
000FE000
003FF000
007FFC00
01FFFF00
03FFFF00
01F87F00
00E00E00
00000000
00000000
00000000
003FC000
00FFF800
03FFFE00
07FFFF00
0FFFFF00
0FF0FF80
1FE07F80
1FE07F80
0FC07F80
0F807F80
00007F80
003FFF80
01FFFF80
07FFFF80
0FFFFF80
1FF87F80
1FE07F80
3FC07F80
3FC07F80
3FC07F80
3FF3FFC0
3FFFFFF8
1FFFFFF8
0FFFDFF8
07FF0FF8
01F803F0
ENDCHAR

STARTCHAR atilde
ENCODING 227
SWIDTH 580 0
DWIDTH 29 0
BBX 30 35 0 -1
BITMAP
003F8600
007FFF00
00FFFF00
01FFFE00
01FFFC00
0043F000
00000000
00000000
00000000
003FC000
00FFF800
03FFFE00
07FFFF00
0FFFFF00
0FF0FF80
1FE07F80
1FE07F80
0FC07F80
0F807F80
00007F80
003FFF80
01FFFF80
07FFFF80
0FFFFF80
1FF87F80
1FE07F80
3FC07F80
3FC07F80
3FC07F80
3FF3FFC0
3FFFFFF8
1FFFFFF8
0FFFDFF8
07FF0FF8
01F803F0
ENDCHAR

STARTCHAR adieresis
ENCODING 228
SWIDTH 580 0
DWIDTH 29 0
BBX 30 36 -1 -1
BITMAP
00E00E00
01F01F00
03F83F80
03F83F80
03F83F80
01F01F00
00F00F00
00000000
00000000
00000000
001FE000
00FFF800
03FFFE00
07FFFF00
0FFFFF00
0FF0FF80
0FE07F80
0FE07F80
0FC07F80
07C07F80
00007F80
003FFF80
01FFFF80
07FFFF80
0FFFFF80
1FF87F80
1FE07F80
3FC07F80
3FC07F80
3FC07F80
3FF3FFC0
3FFFFFF8
1FFFFFF8
0FFFDFF8
07FF0FF8
03F803F0
ENDCHAR

STARTCHAR aring
ENCODING 229
SWIDTH 580 0
DWIDTH 29 0
BBX 30 40 -1 -1
BITMAP
0007C000
000FE000
001FF000
003C7800
00383800
00383800
00383800
003C7800
001FF000
000FE000
0007C000
00000000
00000000
00000000
001FE000
00FFF800
03FFFE00
07FFFF00
0FFFFF00
0FF0FF80
0FE07F80
0FE07F80
0FC07F80
07C07F80
00007F80
003FFF80
01FFFF80
07FFFF80
0FFFFF80
1FF87F80
1FE07F80
3FC07F80
3FC07F80
3FC07F80
3FF3FFC0
3FFFFFF8
1FFFFFF8
0FFFDFF8
07FF0FF8
03F803F0
ENDCHAR

STARTCHAR ae
ENCODING 230
SWIDTH 880 0
DWIDTH 44 0
BBX 43 26 1 -1
BITMAP
003F803F0000
01FFF1FFE000
07FFFFFFF800
0FFFFFFFFC00
1FFFFFFFFE00
3FE1FFE1FE00
3FC0FF80FF00
3FC0FF807F00
1F80FF807F00
1F00FFFFFF80
000FFFFFFF80
00FFFFFFFF80
07FFFFFFFF80
0FFFFF000000
1FFCFF000000
3FE0FF000000
7FC0FF800400
7F80FF800E00
7F80FFC01F00
7F81FFF07F80
7FE7FFFFFF00
7FFFEFFFFE00
3FFFC7FFFC00
1FFF03FFF800
0FFE01FFE000
03F0003F0000
ENDCHAR

STARTCHAR iogonek
ENCODING 231
SWIDTH 360 0
DWIDTH 18 0
BBX 18 44 1 -8
BITMAP
01E000
07F000
07F000
0FF800
0FF800
0FF800
07F000
07F000
01E000
000000
000000
007800
03F800
3FF800
3FF800
3FF800
3FF800
3FF800
07F800
07F800
07F800
07F800
07F800
07F800
07F800
07F800
07F800
07F800
07F800
07F800
07F800
3FFF80
3FFF80
3FFF80
3FFF80
3FFF80
01C000
038000
078000
078000
07FC00
07FC00
03F800
01E000
ENDCHAR

STARTCHAR ccaron
ENCODING 232
SWIDTH 580 0
DWIDTH 29 0
BBX 29 37 1 -1
BITMAP
03C01C00
03F0FE00
07FFFE00
03FFFC00
00FFF000
003FE000
001F8000
00060000
00000000
00000000
00000000
001FE000
00FFFC00
01FFFF00
07FFFF80
0FFFFFC0
0FF87FC0
1FF03FC0
3FE03FC0
3FE01FC0
3FC01FC0
3FC00F80
7FC00000
7FC00000
7FC00000
7FC00000
3FC00000
3FE00100
3FE00380
1FF007C0
1FFC1FE0
0FFFFFC0
07FFFF80
03FFFF00
01FFFC00
007FF800
000F8000
ENDCHAR

STARTCHAR eacute
ENCODING 233
SWIDTH 580 0
DWIDTH 29 0
BBX 28 38 1 -1
BITMAP
0000C000
0003E000
000FF000
001FF000
003FF000
007FF000
00FFE000
00FF8000
00F80000
00000000
00000000
00000000
001FC000
00FFF000
03FFFC00
07FFFE00
0FFFFF00
1FF0FF00
1FE07F80
3FE03F80
3FC03F80
3FFFFFC0
7FFFFFC0
7FFFFFC0
7FFFFFC0
7FC00000
7FC00000
3FC00000
3FE00000
3FE00300
1FF00F80
1FF83FC0
0FFFFF80
07FFFF00
03FFFE00
01FFFC00
007FF000
001F8000
ENDCHAR

STARTCHAR eogonek
ENCODING 234
SWIDTH 580 0
DWIDTH 29 0
BBX 29 34 0 -9
BITMAP
000FC000
007FF800
01FFFE00
07FFFF00
0FFFFF80
0FF07F80
1FE03FC0
3FE01FC0
3FC01FC0
3FFFFFE0
3FFFFFE0
7FFFFFE0
7FFFFFE0
7FC00000
7FC00000
3FC00000
3FE00000
3FE00180
1FF007C0
1FFC1FE0
0FFFFFC0
07FFFFC0
03FFFF00
01FFFE00
00FFF800
001FC000
000F0000
000E0000
001E0000
001E1000
001FF000
001FF000
000FE000
00078000
ENDCHAR

STARTCHAR edieresis
ENCODING 235
SWIDTH 580 0
DWIDTH 29 0
BBX 29 36 0 -1
BITMAP
01C03C00
03E03E00
07F07F00
07F07F00
07F07F00
03E03E00
01E01E00
00000000
00000000
00000000
000FE000
007FF800
01FFFE00
03FFFF00
07FFFF80
0FF87F80
1FF03FC0
1FE01FC0
1FE01FE0
3FFFFFE0
3FFFFFE0
3FFFFFE0
3FFFFFE0
3FC00000
3FC00000
3FE00000
3FE00000
1FF00180
1FF007C0
0FFC1FE0
0FFFFFC0
07FFFF80
03FFFF00
01FFFE00
007FF800
000FC000
ENDCHAR

STARTCHAR edotaccent
ENCODING 236
SWIDTH 580 0
DWIDTH 29 0
BBX 28 36 1 -1
BITMAP
000E0000
001F0000
003F8000
003F8000
003F8000
001F0000
000F0000
00000000
00000000
00000000
001FC000
00FFF000
03FFFC00
07FFFE00
0FFFFF00
1FF0FF00
1FE07F80
3FC03F80
3FC03F80
3FFFFFC0
7FFFFFC0
7FFFFFC0
7FFFFFC0
7FC00000
7FC00000
3FC00000
3FC00000
3FE00300
1FF00F80
1FF83FC0
0FFFFF80
07FFFF00
03FFFE00
01FFFC00
00FFF000
001F8000
ENDCHAR

STARTCHAR iacute
ENCODING 237
SWIDTH 360 0
DWIDTH 18 0
BBX 18 37 0 0
BITMAP
003800
007E00
00FE00
03FF00
07FE00
0FFE00
1FFC00
1FF000
1F0000
000000
000000
000000
003800
03F800
3FF800
3FF800
3FF800
3FF800
3FF800
07F800
07F800
07F800
07F800
07F800
07F800
07F800
07F800
07F800
07F800
07F800
07F800
07F800
3FFF80
3FFF80
3FFF80
3FFF80
3FFF80
ENDCHAR

STARTCHAR icircumflex
ENCODING 238
SWIDTH 360 0
DWIDTH 18 0
BBX 22 36 -2 0
BITMAP
007800
00FE00
03FF00
0FFFC0
1FFFE0
3FFFF0
1F87E0
1C00E0
000000
000000
000000
000E00
00FE00
0FFE00
0FFE00
0FFE00
0FFE00
0FFE00
01FE00
01FE00
01FE00
01FE00
01FE00
01FE00
01FE00
01FE00
01FE00
01FE00
01FE00
01FE00
01FE00
0FFFE0
0FFFE0
0FFFE0
0FFFE0
0FFFE0
ENDCHAR

STARTCHAR imacron
ENCODING 239
SWIDTH 360 0
DWIDTH 18 0
BBX 18 33 0 0
BITMAP
7FFF80
7FFF80
7FFF80
7FFF80
000000
000000
000000
000000
003800
03F800
3FF800
3FF800
3FF800
3FF800
3FF800
07F800
07F800
07F800
07F800
07F800
07F800
07F800
07F800
07F800
07F800
07F800
07F800
07F800
3FFF80
3FFF80
3FFF80
3FFF80
3FFF80
ENDCHAR

STARTCHAR dcroat
ENCODING 240
SWIDTH 640 0
DWIDTH 32 0
BBX 31 37 1 -1
BITMAP
000007C0
00007FC0
0001FFC0
0001FFC0
00003FC0
00003FC0
003FFFFC
003FFFFC
003FFFFC
00003FC0
00003FC0
00FF3FC0
01FFFFC0
07FFFFC0
0FFFFFC0
0FFFFFC0
1FF8FFC0
1FF07FC0
3FE03FC0
3FC03FC0
3FC03FC0
3FC03FC0
7FC03FC0
7FC03FC0
7FC03FC0
7FC03FC0
3FC03FC0
3FC03FC0
3FE03FC0
3FE03FC0
1FF0FFC0
1FFFFFE0
0FFFFFFC
07FFFFFC
03FFDFFC
01FF9FFC
007C1F80
ENDCHAR

STARTCHAR ncommaaccent
ENCODING 241
SWIDTH 680 0
DWIDTH 34 0
BBX 34 37 1 -12
BITMAP
00703F0000
07F1FFC000
7FF7FFE000
7FFFFFF000
7FFFFFF800
7FFFFFF800
7FFF0FF800
07FC07F800
07F807F800
07F807F800
07F807F800
07F807F800
07F807F800
07F807F800
07F807F800
07F807F800
07F807F800
07F807F800
07F807F800
07F807F800
7FFF3FFF80
7FFF3FFF80
7FFF3FFF80
7FFF3FFF80
7FFF3FFF80
0000000000
0000000000
0003C00000
0007E00000
0007F00000
0007F00000
0003F00000
0000700000
0000F00000
0001E00000
0003C00000
0001800000
ENDCHAR

STARTCHAR omacron
ENCODING 242
SWIDTH 620 0
DWIDTH 31 0
BBX 30 34 0 -1
BITMAP
01FFFE00
01FFFE00
01FFFE00
01FFFE00
00000000
00000000
00000000
00000000
001FF000
00FFFC00
03FFFF00
07FFFF80
0FFFFFC0
1FFCFFE0
1FF03FE0
3FE01FF0
3FE01FF0
3FC00FF0
3FC00FF8
7FC00FF8
7FC00FF8
7FC00FF8
7FC00FF8
7FC00FF8
3FC00FF0
3FE01FF0
3FE01FF0
1FF03FE0
1FFCFFE0
0FFFFFC0
07FFFF80
03FFFF00
00FFFC00
003FF000
ENDCHAR

STARTCHAR kcommaaccent
ENCODING 243
SWIDTH 660 0
DWIDTH 33 0
BBX 34 47 1 -12
BITMAP
00F8000000
1FF8000000
3FF8000000
3FF8000000
3FF8000000
3FF8000000
07F8000000
07F8000000
07F8000000
07F8000000
07F8000000
07F8FFFE00
07F8FFFE00
07F8FFFE00
07F8FFFE00
07F8FFFE00
07F81FF000
07F83FC000
07F87F8000
07F9FE0000
07FBFC0000
07FFFC0000
07FFFE0000
07FFFF0000
07FFFF8000
07FE7FC000
07FC7FC000
07F83FE000
07F81FF000
07F80FF800
3FFF7FFF00
3FFF7FFF00
3FFF7FFF00
3FFF7FFF00
3FFF7FFF00
0000000000
0000000000
0007800000
000FC00000
000FE00000
000FE00000
0007E00000
0000E00000
0001C00000
0003C00000
0007800000
0003000000
ENDCHAR

STARTCHAR ocircumflex
ENCODING 244
SWIDTH 620 0
DWIDTH 31 0
BBX 30 37 0 -1
BITMAP
00078000
001FE000
003FF000
00FFFC00
03FFFF00
03FFFF00
01F03E00
01800600
00000000
00000000
00000000
003FF000
00FFFC00
03FFFF00
07FFFF80
0FFFFFC0
1FFCFFE0
1FF03FE0
3FE01FF0
3FE01FF0
3FC00FF0
3FC00FF8
7FC00FF8
7FC00FF8
7FC00FF8
7FC00FF8
7FC00FF8
3FC00FF0
3FE01FF0
3FE01FF0
1FF03FE0
1FFCFFE0
0FFFFFC0
07FFFF80
03FFFF00
00FFFC00
003FF000
ENDCHAR

STARTCHAR otilde
ENCODING 245
SWIDTH 620 0
DWIDTH 31 0
BBX 30 36 0 -1
BITMAP
003F0E00
00FFFF00
01FFFE00
01FFFE00
03FFFC00
00C7F000
00000000
00000000
00000000
00000000
003FF000
00FFFC00
03FFFF00
07FFFF80
0FFFFFC0
1FFCFFE0
1FF03FE0
3FE01FF0
3FE01FF0
3FC00FF0
3FC00FF8
7FC00FF8
7FC00FF8
7FC00FF8
7FC00FF8
7FC00FF8
3FC00FF0
3FE01FF0
3FE01FF0
1FF03FE0
1FFCFFE0
0FFFFFC0
07FFFF80
03FFFF00
00FFFC00
003FF000
ENDCHAR

STARTCHAR odieresis
ENCODING 246
SWIDTH 620 0
DWIDTH 31 0
BBX 30 36 0 -1
BITMAP
00E01C00
01F03E00
03F87F00
03F87F00
03F87F00
01F03E00
00E01C00
00000000
00000000
00000000
003FF000
00FFFC00
03FFFF00
07FFFF80
0FFFFFC0
1FFCFFE0
1FF03FE0
3FE01FF0
3FE01FF0
3FC00FF0
3FC00FF8
7FC00FF8
7FC00FF8
7FC00FF8
7FC00FF8
7FC00FF8
3FC00FF0
3FE01FF0
3FE01FF0
1FF03FE0
1FFCFFE0
0FFFFFC0
07FFFF80
03FFFF00
00FFFC00
003FF000
ENDCHAR

STARTCHAR divide
ENCODING 247
SWIDTH 600 0
DWIDTH 30 0
BBX 27 23 2 6
BITMAP
000E0000
001F0000
003F8000
003F8000
003F8000
001F0000
000E0000
00000000
00000000
7FFFFFC0
7FFFFFC0
7FFFFFC0
7FFFFFC0
7FFFFFC0
00000000
00000000
00060000
001F0000
003F8000
003F8000
003F8000
001F0000
000E0000
ENDCHAR

STARTCHAR oslash
ENCODING 248
SWIDTH 620 0
DWIDTH 31 0
BBX 30 26 0 -1
BITMAP
003FF020
00FFFC70
03FFFFF8
07FFFFF0
0FFFFFE0
1FFCFFE0
1FF03FE0
3FE03FF0
3FE07FF0
3FC0FFF0
3FC1FFF8
7FC3EFF8
7FC7CFF8
7FCF8FF8
7FDF0FF8
7FFE0FF8
3FFC0FF0
3FF81FF0
3FF01FF0
1FF03FE0
1FFCFFE0
1FFFFFC0
3FFFFF80
7FFFFF00
38FFFC00
103FF000
ENDCHAR

STARTCHAR uogonek
ENCODING 249
SWIDTH 660 0
DWIDTH 33 0
BBX 34 33 0 -9
BITMAP
3FF87FF800
3FF87FF800
3FF87FF800
3FF87FF800
3FF87FF800
07F807F800
07F807F800
07F807F800
07F807F800
07F807F800
07F807F800
07F807F800
07F807F800
07F807F800
07F807F800
07F807F800
07F807F800
07F80FF800
07FC3FF800
07FFFFFC00
03FFFFFF80
03FFFFFF80
01FFFBFF80
00FFE3FF80
003F03F800
000000F000
000000E000
000001E000
000001E000
000001FF00
000001FE00
000000FE00
0000007800
ENDCHAR

STARTCHAR uacute
ENCODING 250
SWIDTH 660 0
DWIDTH 33 0
BBX 34 37 0 -1
BITMAP
00003C0000
0000FE0000
0001FF0000
0003FF0000
0007FE0000
000FFE0000
001FFC0000
001FE00000
001C000000
0000000000
0000000000
0000000000
3FF87FF800
3FF87FF800
3FF87FF800
3FF87FF800
3FF87FF800
07F807F800
07F807F800
07F807F800
07F807F800
07F807F800
07F807F800
07F807F800
07F807F800
07F807F800
07F807F800
07F807F800
07F807F800
07F80FF800
07FC3FF800
07FFFFFC00
03FFFFFF80
03FFFFFF80
01FFFBFF80
00FFE3FF80
003F03C000
ENDCHAR

STARTCHAR ucircumflex
ENCODING 251
SWIDTH 660 0
DWIDTH 33 0
BBX 34 37 0 -1
BITMAP
0000C00000
0001E00000
0007F80000
001FFE0000
003FFF0000
00FFFFC000
00FF3FC000
007C0F8000
0060018000
0000000000
0000000000
0000000000
3FF87FF800
3FF87FF800
3FF87FF800
3FF87FF800
3FF87FF800
07F807F800
07F807F800
07F807F800
07F807F800
07F807F800
07F807F800
07F807F800
07F807F800
07F807F800
07F807F800
07F807F800
07F807F800
07F80FF800
07FC3FF800
07FFFFFC00
03FFFFFF80
03FFFFFF80
01FFFBFF80
00FFE3FF80
003F03C000
ENDCHAR

STARTCHAR udieresis
ENCODING 252
SWIDTH 660 0
DWIDTH 33 0
BBX 33 36 0 -1
BITMAP
0070070000
00F80F8000
01FC1FC000
01FC1FC000
01FC1FC000
01FC0FC000
00F80F8000
0000000000
0000000000
0000000000
0000000000
3FF87FF000
3FF87FF000
3FF87FF000
3FF87FF000
3FF87FF000
07F80FF000
07F80FF000
07F80FF000
07F80FF000
07F80FF000
07F80FF000
07F80FF000
07F80FF000
07F80FF000
07F80FF000
07F80FF000
07F80FF000
07F81FF000
07F83FF000
07FFFFF800
03FFFFFF00
03FFFFFF00
01FFF7FF00
00FFC7FF00
003F078000
ENDCHAR

STARTCHAR utilde
ENCODING 253
SWIDTH 660 0
DWIDTH 33 0
BBX 34 35 0 -1
BITMAP
000FE1C000
001FFFE000
003FFFC000
007FFFC000
007FFF8000
0010FE0000
0000000000
0000000000
0000000000
0000000000
3FF87FF800
3FF87FF800
3FF87FF800
3FF87FF800
3FF87FF800
07F807F800
07F807F800
07F807F800
07F807F800
07F807F800
07F807F800
07F807F800
07F807F800
07F807F800
07F807F800
07F807F800
07F807F800
07F80FF800
07FC3FF800
07FFFFFC00
03FFFFFF80
03FFFFFF80
01FFFBFF80
00FFE3FF80
003F03C000
ENDCHAR

STARTCHAR umacron
ENCODING 254
SWIDTH 660 0
DWIDTH 33 0
BBX 34 34 0 -1
BITMAP
007FFF8000
007FFF8000
007FFF8000
007FFF8000
0000000000
0000000000
0000000000
0000000000
0000000000
3FF87FF800
3FF87FF800
3FF87FF800
3FF87FF800
3FF87FF800
07F807F800
07F807F800
07F807F800
07F807F800
07F807F800
07F807F800
07F807F800
07F807F800
07F807F800
07F807F800
07F807F800
07F807F800
07F80FF800
07FC3FF800
07FFFFFC00
03FFFFFF80
03FFFFFF80
01FFFBFF80
00FFE3FF80
003F03C000
ENDCHAR

STARTCHAR dotaccent
ENCODING 255
SWIDTH 320 0
DWIDTH 16 0
BBX 10 7 3 28
BITMAP
1C00
3E00
7F00
7F00
7F00
3E00
1C00
ENDCHAR
ENDFONT
